<svg width="17" height="17" viewBox="0 0 17 17" fill="none" xmlns="http://www.w3.org/2000/svg">
<path d="M8.64142 12.3107C8.14559 12.3107 7.64267 12.1194 7.26725 11.744C6.89892 11.3757 6.6935 10.887 6.6935 10.3699C6.6935 9.85279 6.89892 9.35696 7.26725 8.99571L8.26598 7.99696C8.4714 7.79154 8.8114 7.79154 9.01682 7.99696C9.22223 8.20237 9.22223 8.54237 9.01682 8.74779L8.01808 9.74654C7.84808 9.91654 7.756 10.1361 7.756 10.3699C7.756 10.6036 7.84808 10.8303 8.01808 10.9932C8.36517 11.3403 8.92477 11.3403 9.27185 10.9932L10.8443 9.42069C11.7439 8.52111 11.7439 7.06196 10.8443 6.16238C9.94474 5.26279 8.48559 5.26279 7.58601 6.16238L5.87181 7.87653C5.51056 8.23778 5.31225 8.71237 5.31225 9.21529C5.31225 9.71821 5.51056 10.1999 5.87181 10.554C6.07723 10.7594 6.07723 11.0994 5.87181 11.3049C5.6664 11.5103 5.3264 11.5103 5.12098 11.3049C4.5614 10.7453 4.25684 10.0015 4.25684 9.2082C4.25684 8.41487 4.5614 7.67112 5.12098 7.11154L6.83518 5.39736C8.1456 4.08695 10.2847 4.08695 11.5952 5.39736C12.9056 6.70778 12.9056 8.84695 11.5952 10.1574L10.0227 11.7299C9.64018 12.1194 9.14434 12.3107 8.64142 12.3107Z" fill="white"/>
<path d="M10.6248 16.1144H6.37484C2.52859 16.1144 0.885254 14.4711 0.885254 10.6248V6.37484C0.885254 2.52859 2.52859 0.885254 6.37484 0.885254H10.6248C14.4711 0.885254 16.1144 2.52859 16.1144 6.37484V10.6248C16.1144 14.4711 14.4711 16.1144 10.6248 16.1144ZM6.37484 1.94775C3.10942 1.94775 1.94775 3.10942 1.94775 6.37484V10.6248C1.94775 13.8903 3.10942 15.0519 6.37484 15.0519H10.6248C13.8903 15.0519 15.0519 13.8903 15.0519 10.6248V6.37484C15.0519 3.10942 13.8903 1.94775 10.6248 1.94775H6.37484Z" fill="white"/>
</svg>
