<svg width="16" height="16" viewBox="0 0 16 16" fill="none" xmlns="http://www.w3.org/2000/svg">
<path d="M10.0002 15.1668H6.00016C2.38016 15.1668 0.833496 13.6202 0.833496 10.0002V6.00016C0.833496 2.38016 2.38016 0.833496 6.00016 0.833496H10.0002C13.6202 0.833496 15.1668 2.38016 15.1668 6.00016V10.0002C15.1668 10.1602 15.1668 10.3268 15.1535 10.4801C15.1335 10.6801 14.9935 10.8535 14.8002 10.9135C14.6068 10.9735 14.3935 10.9068 14.2668 10.7468C13.7935 10.1668 13.0935 9.8335 12.3335 9.8335C11.7668 9.8335 11.2135 10.0268 10.7735 10.3802C10.1735 10.8535 9.8335 11.5602 9.8335 12.3335C9.8335 12.7802 9.96016 13.2268 10.1935 13.6202C10.3402 13.8668 10.5335 14.0868 10.7535 14.2602C10.9135 14.3868 10.9802 14.6002 10.9202 14.7935C10.8602 14.9868 10.6935 15.1268 10.4868 15.1468C10.3335 15.1668 10.1668 15.1668 10.0002 15.1668ZM6.00016 1.8335C2.92683 1.8335 1.8335 2.92683 1.8335 6.00016V10.0002C1.8335 13.0735 2.92683 14.1668 6.00016 14.1668H9.35349C9.34683 14.1602 9.34016 14.1468 9.3335 14.1402C9.00016 13.5935 8.82683 12.9668 8.82683 12.3335C8.82683 11.2535 9.30683 10.2602 10.1468 9.60018C11.2668 8.69351 12.9668 8.61351 14.1602 9.34684V6.00016C14.1602 2.92683 13.0668 1.8335 9.9935 1.8335H6.00016Z" fill="white"/>
<path d="M14.3202 5.24023H1.68018C1.40684 5.24023 1.18018 5.01357 1.18018 4.74023C1.18018 4.4669 1.40684 4.24023 1.68018 4.24023H14.3202C14.5935 4.24023 14.8202 4.4669 14.8202 4.74023C14.8202 5.01357 14.6002 5.24023 14.3202 5.24023Z" fill="white"/>
<path d="M5.68018 5.14673C5.40684 5.14673 5.18018 4.92006 5.18018 4.64673V1.40674C5.18018 1.1334 5.40684 0.906738 5.68018 0.906738C5.95351 0.906738 6.18018 1.1334 6.18018 1.40674V4.64673C6.18018 4.92006 5.95351 5.14673 5.68018 5.14673Z" fill="white"/>
<path d="M10.3198 4.84676C10.0465 4.84676 9.81982 4.62009 9.81982 4.34676V1.40674C9.81982 1.1334 10.0465 0.906738 10.3198 0.906738C10.5932 0.906738 10.8198 1.1334 10.8198 1.40674V4.34676C10.8198 4.62676 10.5998 4.84676 10.3198 4.84676Z" fill="white"/>
<path d="M12.3335 15.8335C11.5468 15.8335 10.7868 15.5668 10.1735 15.0802C10.1602 15.0668 10.1402 15.0602 10.1268 15.0468C9.8135 14.7935 9.54683 14.4935 9.34016 14.1402C9.00683 13.5935 8.8335 12.9668 8.8335 12.3335C8.8335 11.2535 9.31349 10.2602 10.1535 9.60018C10.7668 9.10685 11.5402 8.8335 12.3335 8.8335C13.3935 8.8335 14.3802 9.30016 15.0402 10.1202C15.5468 10.7335 15.8335 11.5202 15.8335 12.3335C15.8335 12.9668 15.6602 13.5868 15.3268 14.1402C15.1335 14.4602 14.9002 14.7335 14.6335 14.9668C14.0002 15.5268 13.1868 15.8335 12.3335 15.8335ZM10.7135 14.2335C10.7335 14.2468 10.7468 14.2601 10.7668 14.2735C11.2068 14.6401 11.7602 14.8402 12.3335 14.8402C12.9468 14.8402 13.5135 14.6268 13.9735 14.2202C14.1668 14.0535 14.3335 13.8535 14.4735 13.6335C14.7068 13.2402 14.8335 12.7935 14.8335 12.3468C14.8335 11.7668 14.6335 11.2068 14.2668 10.7668C13.7935 10.1802 13.0868 9.84684 12.3335 9.84684C11.7668 9.84684 11.2135 10.0402 10.7735 10.3935C10.1735 10.8668 9.8335 11.5735 9.8335 12.3468C9.8335 12.7935 9.96016 13.2402 10.1935 13.6335C10.3335 13.8535 10.5068 14.0601 10.7135 14.2335Z" fill="white"/>
<path d="M11.9 13.5734C11.7733 13.5734 11.6466 13.5268 11.5466 13.4268L10.8066 12.6868C10.6133 12.4935 10.6133 12.1734 10.8066 11.9801C11 11.7868 11.32 11.7868 11.5133 11.9801L11.9133 12.3801L13.16 11.2268C13.36 11.0401 13.68 11.0534 13.8666 11.2534C14.0533 11.4534 14.0399 11.7734 13.8399 11.9601L12.24 13.4401C12.1466 13.5268 12.0266 13.5734 11.9 13.5734Z" fill="white"/>
</svg>
