<svg width="27" height="27" viewBox="0 0 27 27" fill="none" xmlns="http://www.w3.org/2000/svg">
<path d="M17.4713 10.7219C17.6295 10.5637 17.7188 10.3488 17.7188 10.125C17.7188 9.90122 17.6299 9.68661 17.4716 9.52838L17.4643 9.52118C17.3068 9.36765 17.095 9.28125 16.875 9.28125C16.6512 9.28125 16.4366 9.37015 16.2784 9.52838L13.5 12.3068L10.7216 9.52838C10.5634 9.37015 10.3488 9.28125 10.125 9.28125C9.90122 9.28125 9.68661 9.37015 9.52838 9.52838C9.37015 9.68661 9.28125 9.90122 9.28125 10.125C9.28125 10.3488 9.37015 10.5634 9.52838 10.7216L12.3068 13.5L9.5287 16.2781C9.37046 16.4363 9.28125 16.6512 9.28125 16.875C9.28125 16.8767 9.28125 16.8784 9.28127 16.8801C9.28134 16.8919 9.28166 16.9037 9.28222 16.9155C9.2923 17.125 9.38006 17.3233 9.52838 17.4716C9.68661 17.6299 9.90122 17.7188 10.125 17.7188C10.3488 17.7188 10.5634 17.6299 10.7216 17.4716L13.5 14.6932L16.2784 17.4716C16.4366 17.6299 16.6512 17.7188 16.875 17.7188C17.0988 17.7188 17.3134 17.6299 17.4716 17.4716C17.6299 17.3134 17.7188 17.0988 17.7188 16.875C17.7188 16.6512 17.6299 16.4366 17.4716 16.2784L14.6932 13.5L17.4713 10.7219Z" fill="#646464"/>
<path fill-rule="evenodd" clip-rule="evenodd" d="M13.5 2.53125C13.5 2.53125 15.731 2.53125 17.7698 3.39358C17.7698 3.39358 19.7384 4.22621 21.2561 5.74392C21.2561 5.74392 22.7738 7.26163 23.6064 9.23021C23.6064 9.23021 24.4688 11.269 24.4688 13.5C24.4688 13.5 24.4687 15.731 23.6064 17.7698C23.6064 17.7698 22.7738 19.7384 21.2561 21.2561C21.2561 21.2561 19.7384 22.7738 17.7698 23.6064C17.7698 23.6064 15.731 24.4688 13.5 24.4688C13.5 24.4688 11.269 24.4688 9.23021 23.6064C9.23021 23.6064 7.26163 22.7738 5.74392 21.2561C5.74392 21.2561 4.22621 19.7384 3.39358 17.7698C3.39358 17.7698 2.53125 15.731 2.53125 13.5C2.53125 13.5 2.53125 11.269 3.39358 9.23021C3.39358 9.23021 4.22621 7.26163 5.74392 5.74392C5.74392 5.74392 7.26163 4.22621 9.23021 3.39357C9.23021 3.39357 11.269 2.53125 13.5 2.53125ZM13.5 4.21875C13.5 4.21875 11.6112 4.21875 9.88758 4.94777C9.88758 4.94777 8.22214 5.65219 6.93717 6.93716C6.93717 6.93716 5.65219 8.22214 4.94777 9.88758C4.94777 9.88758 4.21875 11.6112 4.21875 13.5C4.21875 13.5 4.21875 15.3888 4.94777 17.1124C4.94777 17.1124 5.65219 18.7779 6.93717 20.0628C6.93717 20.0628 8.22214 21.3478 9.88758 22.0522C9.88758 22.0522 11.6112 22.7812 13.5 22.7812C13.5 22.7812 15.3888 22.7813 17.1124 22.0522C17.1124 22.0522 18.7779 21.3478 20.0628 20.0628C20.0628 20.0628 21.3478 18.7779 22.0522 17.1124C22.0522 17.1124 22.7812 15.3888 22.7812 13.5C22.7812 13.5 22.7813 11.6112 22.0522 9.88758C22.0522 9.88758 21.3478 8.22214 20.0628 6.93716C20.0628 6.93716 18.7779 5.65219 17.1124 4.94777C17.1124 4.94777 15.3888 4.21875 13.5 4.21875Z" fill="#646464"/>
</svg>
