<svg width="16" height="16" viewBox="0 0 16 16" fill="none" xmlns="http://www.w3.org/2000/svg">
<path d="M11.3335 15.1668H4.66683C1.72683 15.1668 0.833496 14.2735 0.833496 11.3335V4.66683C0.833496 1.72683 1.72683 0.833496 4.66683 0.833496H5.66683C6.8335 0.833496 7.20016 1.2135 7.66683 1.8335L8.66683 3.16683C8.88683 3.46016 8.92016 3.50016 9.3335 3.50016H11.3335C14.2735 3.50016 15.1668 4.3935 15.1668 7.3335V11.3335C15.1668 14.2735 14.2735 15.1668 11.3335 15.1668ZM4.66683 1.8335C2.28683 1.8335 1.8335 2.28683 1.8335 4.66683V11.3335C1.8335 13.7135 2.28683 14.1668 4.66683 14.1668H11.3335C13.7135 14.1668 14.1668 13.7135 14.1668 11.3335V7.3335C14.1668 4.9535 13.7135 4.50016 11.3335 4.50016H9.3335C8.48016 4.50016 8.20016 4.20683 7.86683 3.76683L6.86683 2.4335C6.52016 1.9735 6.42016 1.8335 5.66683 1.8335H4.66683Z" fill="white"/>
</svg>
