<svg width="45" height="45" viewBox="0 0 45 45" fill="none" xmlns="http://www.w3.org/2000/svg">
<path d="M31.875 42.6562H13.125C4.85625 42.6562 2.34375 40.1437 2.34375 31.875V13.125C2.34375 4.85625 4.85625 2.34375 13.125 2.34375H15.9375C19.2188 2.34375 20.25 3.4125 21.5625 5.15625L24.375 8.90625C24.9938 9.73125 25.0875 9.84375 26.25 9.84375H31.875C40.1437 9.84375 42.6562 12.3562 42.6562 20.625V31.875C42.6562 40.1437 40.1437 42.6562 31.875 42.6562ZM13.125 5.15625C6.43125 5.15625 5.15625 6.43125 5.15625 13.125V31.875C5.15625 38.5687 6.43125 39.8438 13.125 39.8438H31.875C38.5687 39.8438 39.8438 38.5687 39.8438 31.875V20.625C39.8438 13.9312 38.5687 12.6562 31.875 12.6562H26.25C23.85 12.6562 23.0625 11.8313 22.125 10.5938L19.3125 6.84375C18.3375 5.55 18.0563 5.15625 15.9375 5.15625H13.125Z" fill="white"/>
</svg>
