<svg width="47" height="47" viewBox="0 0 47 47" fill="none" xmlns="http://www.w3.org/2000/svg">
<path d="M29.3762 44.5512H17.6262C15.0412 44.5512 12.8871 44.2966 11.0658 43.7483C10.4 43.5525 9.96916 42.9062 10.0083 42.2207C10.4979 36.3653 16.4317 31.7632 23.5012 31.7632C30.5708 31.7632 36.485 36.3457 36.9942 42.2207C37.0529 42.9257 36.6221 43.5525 35.9367 43.7483C34.1154 44.2966 31.9612 44.5512 29.3762 44.5512ZM13.1612 41.2416C14.4537 41.4962 15.9225 41.6137 17.6262 41.6137H29.3762C31.08 41.6137 32.5487 41.4962 33.8412 41.2416C32.8033 37.4816 28.5146 34.7007 23.5012 34.7007C18.4879 34.7007 14.1992 37.4816 13.1612 41.2416Z" fill="white"/>
<path d="M29.3748 3.9165H17.6248C7.83317 3.9165 3.9165 7.83317 3.9165 17.6248V29.3748C3.9165 36.7773 6.14901 40.8311 11.4757 42.339C11.9065 37.2473 17.1353 33.2327 23.4998 33.2327C29.8644 33.2327 35.0932 37.2473 35.524 42.339C40.8507 40.8311 43.0832 36.7773 43.0832 29.3748V17.6248C43.0832 7.83317 39.1665 3.9165 29.3748 3.9165ZM23.4998 27.7494C19.6223 27.7494 16.489 24.5965 16.489 20.719C16.489 16.8415 19.6223 13.7082 23.4998 13.7082C27.3773 13.7082 30.5107 16.8415 30.5107 20.719C30.5107 24.5965 27.3773 27.7494 23.4998 27.7494Z" stroke="white" stroke-width="3" stroke-linecap="round" stroke-linejoin="round"/>
<path d="M23.5006 29.2185C18.8202 29.2185 15.021 25.3998 15.021 20.7194C15.021 16.0389 18.8202 12.2397 23.5006 12.2397C28.181 12.2397 31.9802 16.0389 31.9802 20.7194C31.9802 25.3998 28.181 29.2185 23.5006 29.2185ZM23.5006 15.1772C20.4456 15.1772 17.9585 17.6644 17.9585 20.7194C17.9585 23.7939 20.4456 26.281 23.5006 26.281C26.5556 26.281 29.0427 23.7939 29.0427 20.7194C29.0427 17.6644 26.5556 15.1772 23.5006 15.1772Z" fill="white"/>
</svg>
