<svg width="15" height="15" viewBox="0 0 15 15" fill="none" xmlns="http://www.w3.org/2000/svg">
<path d="M9.3754 14.2185H5.6254C4.8004 14.2185 4.1129 14.1372 3.53165 13.9622C3.31915 13.8997 3.18165 13.6935 3.19415 13.4747C3.3504 11.606 5.24415 10.1372 7.5004 10.1372C9.75665 10.1372 11.6441 11.5997 11.8066 13.4747C11.8254 13.6997 11.6879 13.8997 11.4691 13.9622C10.8879 14.1372 10.2004 14.2185 9.3754 14.2185ZM4.2004 13.1622C4.6129 13.2435 5.08165 13.281 5.6254 13.281H9.3754C9.91915 13.281 10.3879 13.2435 10.8004 13.1622C10.4691 11.9622 9.1004 11.0747 7.5004 11.0747C5.9004 11.0747 4.53165 11.9622 4.2004 13.1622Z" fill="white"/>
<path d="M9.375 1.25H5.625C2.5 1.25 1.25 2.5 1.25 5.625V9.375C1.25 11.7375 1.9625 13.0312 3.6625 13.5125C3.8 11.8875 5.46875 10.6062 7.5 10.6062C9.53125 10.6062 11.2 11.8875 11.3375 13.5125C13.0375 13.0312 13.75 11.7375 13.75 9.375V5.625C13.75 2.5 12.5 1.25 9.375 1.25ZM7.5 8.85624C6.2625 8.85624 5.2625 7.85001 5.2625 6.61251C5.2625 5.37501 6.2625 4.375 7.5 4.375C8.7375 4.375 9.7375 5.37501 9.7375 6.61251C9.7375 7.85001 8.7375 8.85624 7.5 8.85624Z" stroke="white" stroke-linecap="round" stroke-linejoin="round"/>
<path d="M7.5002 9.32499C6.00645 9.32499 4.79395 8.10626 4.79395 6.61251C4.79395 5.11876 6.00645 3.90625 7.5002 3.90625C8.99395 3.90625 10.2064 5.11876 10.2064 6.61251C10.2064 8.10626 8.99395 9.32499 7.5002 9.32499ZM7.5002 4.84375C6.5252 4.84375 5.73145 5.63751 5.73145 6.61251C5.73145 7.59376 6.5252 8.38749 7.5002 8.38749C8.4752 8.38749 9.26895 7.59376 9.26895 6.61251C9.26895 5.63751 8.4752 4.84375 7.5002 4.84375Z" fill="white"/>
</svg>
