<svg width="18" height="18" viewBox="0 0 18 18" fill="none" xmlns="http://www.w3.org/2000/svg">
<path d="M8.625 16.3125C4.3875 16.3125 0.9375 12.8625 0.9375 8.625C0.9375 4.3875 4.3875 0.9375 8.625 0.9375C12.8625 0.9375 16.3125 4.3875 16.3125 8.625C16.3125 12.8625 12.8625 16.3125 8.625 16.3125ZM8.625 2.0625C5.0025 2.0625 2.0625 5.01 2.0625 8.625C2.0625 12.24 5.0025 15.1875 8.625 15.1875C12.2475 15.1875 15.1875 12.24 15.1875 8.625C15.1875 5.01 12.2475 2.0625 8.625 2.0625Z" fill="#8C8C8C"/>
<path d="M16.1445 17C15.927 17 15.7096 16.9199 15.5379 16.7484L13.2489 14.461C12.917 14.1294 12.917 13.5804 13.2489 13.2487C13.5808 12.9171 14.1302 12.9171 14.4621 13.2487L16.7511 15.5361C17.083 15.8678 17.083 16.4167 16.7511 16.7484C16.5794 16.9199 16.3619 17 16.1445 17Z" fill="#8C8C8C"/>
</svg>
