<svg width="23" height="24" viewBox="0 0 23 24" fill="none" xmlns="http://www.w3.org/2000/svg">
<path d="M11.7269 9.70987V14.2286H17.8598C17.5961 15.6898 16.7927 16.9247 15.5845 17.7543V20.6861H19.2672C21.4229 18.653 22.6648 15.6583 22.6648 12.1012C22.6648 11.2716 22.5912 10.4766 22.4563 9.71301H11.7239L11.7269 9.70987Z" fill="white"/>
<mask id="mask0_1_2" style="mask-type:luminance" maskUnits="userSpaceOnUse" x="11" y="9" width="12" height="12">
<path d="M11.7269 9.70987V14.2286H17.8598C17.5961 15.6898 16.7927 16.9247 15.5845 17.7543V20.6861H19.2672C21.4229 18.653 22.6648 15.6583 22.6648 12.1012C22.6648 11.2716 22.5912 10.4766 22.4563 9.71301H11.7239L11.7269 9.70987Z" fill="white"/>
</mask>
<g mask="url(#mask0_1_2)">
<path d="M29 3.22092H5.39783V27.1688H29V3.22092Z" fill="white"/>
</g>
<path d="M1.54335 14.0526V17.0787C3.41999 20.8966 7.2714 23.5111 11.7269 23.5111C14.8025 23.5111 17.3844 22.4646 19.2703 20.6829L15.5875 17.7511C14.5664 18.4519 13.2601 18.8667 11.7269 18.8667C8.75861 18.8667 6.24722 16.8116 5.34876 14.0526H1.54028H1.54335Z" fill="white"/>
<mask id="mask1_1_2" style="mask-type:luminance" maskUnits="userSpaceOnUse" x="1" y="14" width="19" height="10">
<path d="M1.54335 14.0526V17.0787C3.41999 20.8966 7.2714 23.5111 11.7269 23.5111C14.8025 23.5111 17.3844 22.4646 19.2703 20.6829L15.5875 17.7511C14.5664 18.4519 13.2601 18.8667 11.7269 18.8667C8.75861 18.8667 6.24722 16.8116 5.34876 14.0526H1.54028H1.54335Z" fill="white"/>
</mask>
<g mask="url(#mask1_1_2)">
<path d="M25.5993 7.56363H-4.78882V30H25.5993V7.56363Z" fill="white"/>
</g>
<path d="M1.54339 6.58951C0.77065 8.16697 0.332153 9.94868 0.332153 11.8341C0.332153 13.7195 0.773717 15.5012 1.54339 17.0787L5.35187 14.0526C5.12495 13.3518 4.9931 12.604 4.9931 11.8341C4.9931 11.0642 5.12189 10.3163 5.35187 9.61559V6.58951H1.54339Z" fill="white"/>
<mask id="mask2_1_2" style="mask-type:luminance" maskUnits="userSpaceOnUse" x="0" y="6" width="6" height="12">
<path d="M1.54339 6.58951C0.77065 8.16697 0.332153 9.94868 0.332153 11.8341C0.332153 13.7195 0.773717 15.5012 1.54339 17.0787L5.35187 14.0526C5.12495 13.3518 4.9931 12.604 4.9931 11.8341C4.9931 11.0642 5.12189 10.3163 5.35187 9.61559V6.58951H1.54339Z" fill="white"/>
</mask>
<g mask="url(#mask2_1_2)">
<path d="M11.6809 0.100555H-6V23.5676H11.6809V0.100555Z" fill="white"/>
</g>
<path d="M1.54333 6.58949L5.35182 9.61557C6.24721 6.85659 8.76166 4.80149 11.7299 4.80149C13.4042 4.80149 14.9067 5.38911 16.0873 6.54864L19.3561 3.1989C17.3783 1.31349 14.7994 0.153961 11.7269 0.153961C7.27139 0.153961 3.41691 2.77154 1.54333 6.58635" fill="white"/>
<mask id="mask3_1_2" style="mask-type:luminance" maskUnits="userSpaceOnUse" x="1" y="0" width="19" height="10">
<path d="M1.54333 6.58949L5.35182 9.61557C6.24721 6.85659 8.76166 4.80149 11.7299 4.80149C13.4042 4.80149 14.9067 5.38911 16.0873 6.54864L19.3561 3.1989C17.3783 1.31349 14.7994 0.153961 11.7269 0.153961C7.27139 0.153961 3.41691 2.77154 1.54333 6.58635" fill="white"/>
</mask>
<g mask="url(#mask3_1_2)">
<path d="M26.7339 0H-3.73706V22.4364H26.7339V0Z" fill="white"/>
</g>
</svg>
