<svg width="470" height="434" viewBox="0 0 470 434" fill="none" xmlns="http://www.w3.org/2000/svg">
<path d="M172.758 241.57C175.356 242.942 177.776 244.237 180.17 245.506C182.582 246.784 183.168 248.657 181.928 251.126C181.928 251.126 181.826 251.307 181.775 251.411C180.298 253.69 178.846 255.943 177.368 258.222C174.082 256.875 170.771 255.632 167.535 254.13C167.026 253.897 166.567 252.369 166.822 251.773C168.121 248.743 169.599 245.791 171.153 242.891C171.458 242.321 172.223 241.984 172.732 241.57H172.758Z" fill="white"/>
<path d="M196.118 322.913C197.595 321.878 199.302 320.66 201.009 319.469C202.741 318.278 204.448 317.061 206.689 315.533C208.727 318.33 210.944 321.023 212.727 323.949C213.975 326.021 211.835 328.974 207.708 331.33C204.346 333.272 202.843 333.143 201.162 330.657C199.506 328.197 197.952 325.685 196.118 322.862V322.913Z" fill="white"/>
<path d="M39.3784 104.079C36.2705 102.474 33.5703 101.075 30.8446 99.7026C28.7557 98.6408 28.2717 97.2164 29.3671 94.9893C33.6212 86.469 33.5703 86.4431 42.1296 90.4054C44.5581 91.5276 45.11 93.2973 43.7854 95.7144C42.2824 98.4854 40.8304 101.282 39.3529 104.079H39.3784Z" fill="white"/>
<path d="M100.057 188.688C102.91 190.553 105.712 192.444 108.59 194.205C110.272 195.215 110.399 196.38 109.406 197.908C108.59 199.151 107.801 200.42 107.011 201.689C103.929 206.61 103.547 206.713 98.5791 203.864C98.0441 203.554 97.5092 203.191 97.0252 202.803C92.5418 199.255 92.5672 199.255 95.9553 194.645C97.3309 192.78 98.6046 190.812 100.057 188.714V188.688Z" fill="white"/>
<path d="M210.587 311.986C208.753 309.422 206.638 306.781 204.957 303.906C204.473 303.052 204.779 300.85 205.492 300.281C207.887 298.442 210.638 297.043 213.287 295.567C213.618 295.386 214.484 295.515 214.714 295.826C216.803 298.494 218.968 301.109 220.675 304.01C221.006 304.554 219.63 306.677 218.586 307.402C216.268 309.034 213.669 310.251 210.587 311.986Z" fill="white"/>
<path d="M181.317 171.465C181.317 175.427 181.445 178.846 181.215 182.264C181.164 183.015 179.967 184.258 179.279 184.284C176.248 184.414 173.191 184.181 170.134 184.077C168.504 184.025 167.663 183.507 167.867 181.539C168.122 179.105 167.994 176.619 167.918 174.184C167.842 172.32 168.478 171.413 170.414 171.465C173.853 171.543 177.318 171.465 181.317 171.465Z" fill="white"/>
<path d="M425.843 102.759C428.747 104.753 431.753 106.67 434.529 108.871C435.09 109.311 435.217 110.943 434.911 111.798C434.478 113.066 433.434 114.128 432.695 115.294C429.333 120.654 428.314 120.888 423.397 117.469C419.245 114.569 418.863 110.71 422.327 106.67C423.423 105.401 424.544 104.158 425.817 102.733L425.843 102.759Z" fill="white"/>
<path d="M303.57 107.111C305.149 110.4 306.525 113.404 307.977 116.357C308.945 118.325 308.384 119.646 306.474 120.474C305.404 120.941 304.359 121.484 303.238 121.795C301.099 122.443 297.379 123.919 297.023 123.349C295.189 120.319 294.17 116.771 292.947 113.353C292.845 113.068 293.329 112.317 293.686 112.135C296.844 110.452 300.054 108.846 303.519 107.085L303.57 107.111Z" fill="white"/>
<path d="M199.352 360.516C196.38 360.257 194.724 358.522 194.385 355.311C194.104 352.669 193.824 350.028 193.519 347.101C197.696 346.532 201.492 345.988 205.644 345.418C206.154 349.121 206.816 352.592 207.02 356.062C207.071 356.865 205.797 358.082 204.854 358.548C203.097 359.428 201.135 359.921 199.25 360.568L199.352 360.49V360.516Z" fill="white"/>
<path d="M157.118 339.36C157.474 339.593 157.882 339.748 158.137 340.059C160.226 342.468 162.315 344.85 164.302 347.362C164.684 347.828 164.887 349.046 164.582 349.356C162.365 351.765 160.047 354.07 157.653 356.271C157.271 356.608 155.971 356.582 155.64 356.219C153.271 353.681 151.004 351.066 148.839 348.372C148.584 348.061 148.966 346.896 149.399 346.456C151.514 344.229 153.73 342.105 155.946 339.981C156.226 339.697 156.685 339.593 157.143 339.386L157.118 339.36Z" fill="white"/>
<path d="M68.2897 277.956C65.3601 274.926 62.8127 272.595 60.6474 269.928C60.0106 269.151 60.4946 267.468 60.4691 266.199C60.4691 266.095 60.571 266.017 60.622 265.914C62.2523 263.738 63.9081 261.589 65.5385 259.414C68.6208 261.408 71.7287 263.35 74.7091 265.499C75.1422 265.81 75.2441 267.364 74.8874 267.96C72.9514 271.119 70.8371 274.149 68.2897 277.982V277.956Z" fill="white"/>
<path d="M293.864 36.15C296.742 33.5343 299.595 30.8928 302.882 27.8887C305.556 30.582 307.976 32.9128 310.244 35.373C310.753 35.9428 311.161 37.4189 310.804 37.8333C308.741 40.3713 306.55 42.8315 304.206 45.1105C303.799 45.5249 302.194 45.2918 301.608 44.7997C298.984 42.6761 296.539 40.3195 294.017 38.0664L293.864 36.15Z" fill="white"/>
<path d="M24.5241 15.4863C26.6639 19.1897 28.7018 22.7376 31.1474 26.9589C27.9886 28.6422 24.9826 30.4551 21.7729 31.8535C20.9577 32.1902 19.1746 31.4651 18.5122 30.6623C16.9838 28.7717 15.7865 26.6222 14.6911 24.4469C14.3345 23.7217 14.309 22.0902 14.7675 21.7794C17.8499 19.604 21.1106 17.6617 24.5241 15.5122V15.4863Z" fill="white"/>
<path d="M213.364 151.576C207.658 151.628 207.531 151.628 207.48 145.827C207.403 137.98 205.671 138.912 214.128 138.835C220.166 138.783 220.166 138.835 220.115 144.92C220.081 149.323 217.831 151.542 213.364 151.576Z" fill="white"/>
<path d="M204.675 114.413C201.007 114.025 198.281 113.688 195.556 113.481C193.569 113.325 193.085 112.238 193.39 110.451C193.696 108.664 193.925 106.877 194.231 105.09C194.808 101.758 196.702 100.334 199.912 100.817C201.873 101.128 203.86 101.464 205.822 101.775C207.427 102.034 207.809 102.863 207.427 104.494C206.841 107.084 206.611 109.752 206 112.341C205.796 113.248 204.956 113.999 204.675 114.413Z" fill="white"/>
<path d="M179.253 59.716C179.304 55.3998 181.393 53.3107 185.52 53.4488C192.22 53.656 192.271 53.656 192.067 60.6742C191.863 67.4593 192.755 66.3975 186.31 66.4752C186.106 66.4752 185.877 66.4752 185.673 66.4752C181.359 66.4234 179.228 64.179 179.279 59.7419L179.253 59.716Z" fill="white"/>
<path d="M183.611 413.762H171.052C171.052 410.085 170.925 406.459 171.154 402.859C171.205 402.108 172.555 400.917 173.37 400.891C176.198 400.736 179.102 400.813 181.904 401.202C182.719 401.305 183.942 402.678 183.967 403.507C184.069 406.796 183.763 410.11 183.611 413.762Z" fill="white"/>
<path d="M253.053 124.773C252.67 124.178 251.83 123.453 251.651 122.572C251.142 119.956 250.938 117.289 250.48 114.647C250.199 113.068 250.607 112.265 252.288 112.032C255.218 111.669 258.096 110.996 261.026 110.763C261.79 110.711 263.191 111.617 263.344 112.317C263.981 115.114 264.363 117.988 264.567 120.863C264.618 121.588 263.777 122.909 263.14 123.064C260.058 123.763 256.925 124.152 253.053 124.748V124.773Z" fill="white"/>
<path d="M139.796 367.045C140.942 367.174 142.088 367.355 143.235 367.459C147.124 367.822 148.907 370.023 148.584 374.063C148.211 378.828 145.748 380.943 141.197 380.408C137.579 379.976 135.856 377.956 136.026 374.348C136.102 372.949 136.408 371.577 136.331 370.204C136.204 367.588 137.401 366.708 139.796 367.071V367.045Z" fill="white"/>
<path d="M212.625 119.23C216.396 118.893 219.937 118.453 223.477 118.35C224.165 118.35 225.312 119.567 225.49 120.396C226.05 122.882 226.381 125.446 226.458 128.009C226.458 128.76 225.49 130.055 224.751 130.237C221.796 130.91 218.765 131.376 215.733 131.635C215.02 131.687 213.644 130.677 213.568 130.029C213.084 126.663 212.931 123.244 212.625 119.256V119.23Z" fill="white"/>
<path d="M275.29 112.987C279.009 111.874 282.296 110.786 285.633 109.983C286.295 109.828 287.773 110.579 287.951 111.2C288.97 114.748 289.734 118.374 290.626 122.207C286.906 123.035 283.569 123.838 280.181 124.46C279.544 124.589 278.271 124.123 278.118 123.657C277.048 120.135 276.182 116.561 275.239 113.013L275.29 112.987Z" fill="white"/>
<path d="M192.094 159.994C185.522 159.994 185.496 159.994 185.547 153.494C185.598 146.346 184.452 147.227 191.737 147.253C198.717 147.253 198.157 145.777 198.182 153.96C198.182 159.994 198.182 159.994 192.094 159.994Z" fill="white"/>
<path d="M138.904 120.24C141.91 118.349 144.661 116.329 147.693 114.957C148.584 114.542 150.546 115.682 151.565 116.614C152.584 117.572 153.017 119.178 153.756 120.473C156.125 124.642 155.743 125.937 151.285 128.113C149.782 128.864 148.151 129.433 146.547 129.9C145.986 130.055 144.916 129.9 144.636 129.459C142.725 126.559 140.968 123.581 138.904 120.214V120.24Z" fill="white"/>
<path d="M279.061 70.8022C282.475 71.4497 285.2 71.7864 287.799 72.5633C288.537 72.7964 289.404 74.3761 289.302 75.2566C289.047 77.8982 288.512 80.5397 287.773 83.0777C287.569 83.8287 286.296 84.8387 285.582 84.7869C282.653 84.5538 279.749 84.0876 276.896 83.3884C276.183 83.2071 275.189 81.8087 275.291 81.1094C275.673 78.1571 276.284 75.2307 277.1 72.3561C277.329 71.5792 278.603 71.113 279.036 70.8022H279.061Z" fill="white"/>
<path d="M151.41 158.493C151.41 154.764 151.359 151.449 151.461 148.16C151.461 147.59 152.098 146.632 152.557 146.554C156.174 146.036 159.817 145.674 163.943 145.208C163.943 149.455 164.045 153.08 163.842 156.68C163.816 157.328 162.593 158.363 161.855 158.415C158.594 158.597 155.333 158.493 151.385 158.493H151.41Z" fill="white"/>
<path d="M177.242 131.323C178.006 129.148 178.49 127.516 179.178 125.988C181.445 120.783 188.247 119.281 192.399 123.062C192.832 123.476 192.908 124.616 192.73 125.315C192.119 127.568 191.252 129.77 190.59 132.023C189.418 135.985 189.342 136.14 185.393 134.768C182.744 133.835 180.197 132.566 177.267 131.323H177.242Z" fill="white"/>
<path d="M437.69 125.292V112.783C441.18 112.783 444.542 112.861 447.905 112.758C449.663 112.706 450.452 113.276 450.351 115.14C450.249 116.953 450.351 118.792 450.402 120.605C450.452 125.447 451.497 125.344 445.638 125.266C443.116 125.266 440.594 125.266 437.715 125.266L437.69 125.292Z" fill="white"/>
<path d="M208.423 164.576C208.525 166.803 208.652 168.694 208.703 170.584C208.754 172.475 208.703 174.391 208.703 176.67C204.831 176.67 201.061 176.748 197.316 176.566C196.832 176.566 196.119 175.116 196.043 174.313C195.89 171.983 196.196 169.6 195.941 167.269C195.712 165.223 196.399 164.498 198.285 164.524C201.545 164.55 204.78 164.524 208.372 164.524L208.423 164.576Z" fill="white"/>
<path d="M180.63 367.692C175.79 367.174 172.911 364.273 171.765 360.907C171.026 358.731 172.937 355.546 173.905 352.93C174.032 352.62 175.637 352.62 176.478 352.853C179.229 353.63 181.955 354.458 184.579 355.52C185.164 355.753 185.852 357.203 185.648 357.799C184.706 360.622 183.534 363.393 182.26 366.112C181.904 366.889 180.961 367.381 180.63 367.718V367.692Z" fill="white"/>
<path d="M227.22 276.533C223.374 275.652 220.011 274.875 216.623 274.15C214.611 273.736 214.203 272.777 215.247 270.991C216.521 268.789 217.566 266.433 218.941 264.283C219.425 263.532 220.521 262.833 221.387 262.729C228.621 261.952 229.64 263.118 228.341 270.214C227.959 272.26 227.602 274.305 227.22 276.533Z" fill="white"/>
<path d="M323.974 95.9478C326.317 98.5893 328.483 101.05 330.673 103.484C331.871 104.805 331.82 105.892 330.622 107.369C325.451 113.636 325.502 113.662 319.847 107.809C318.599 106.54 317.172 105.452 315.44 103.95C318.115 101.438 320.713 99.0296 323.974 95.9736V95.9478Z" fill="white"/>
<path d="M77.1523 55.9614C80.1328 57.2563 82.7821 58.2922 85.304 59.5871C85.8899 59.8978 86.2975 61.0632 86.2975 61.866C86.2975 62.7725 85.8135 63.7048 85.4569 64.6112C81.7631 73.9343 83.0623 72.5358 74.503 69.2468C72.9491 68.6512 72.3123 67.7966 73.0255 66.0873C74.4011 62.8761 75.6748 59.613 77.1523 55.9873V55.9614Z" fill="white"/>
<path d="M142.419 14.5258C142.088 14.1373 141.273 13.6193 141.069 12.8942C140.203 9.91601 139.362 6.9378 138.853 3.88189C138.751 3.18266 139.923 2.06907 140.738 1.49932C141.349 1.05907 142.368 1.26625 143.183 1.03317C148.1 -0.391191 148.176 -0.417089 149.858 4.42574C153.042 13.7229 152.966 11.9619 144.534 14.1373C144.024 14.2668 143.489 14.3445 142.419 14.5258Z" fill="white"/>
<path d="M370.031 96.4413C367.127 95.7162 364.631 95.1982 362.262 94.3954C361.752 94.2141 361.217 92.8674 361.345 92.1941C361.88 89.3713 362.542 86.5485 363.485 83.8551C363.765 83.0523 365.14 82.379 366.134 82.1459C366.974 81.9387 367.943 82.5085 368.885 82.6638C372.876 83.3544 374.328 85.6507 373.241 89.5526C372.783 91.1841 372.451 92.8933 371.815 94.4472C371.483 95.25 370.617 95.8198 370.057 96.4154L370.031 96.4413Z" fill="white"/>
<path d="M341.831 127.594C338.544 125.807 335.895 124.305 333.169 122.906C331.335 121.974 330.877 120.86 331.768 118.814C335.105 111.175 335.437 111.019 342.264 115.551C343.053 116.069 344.047 116.406 344.633 117.105C345.219 117.83 345.906 119.125 345.652 119.798C344.607 122.44 343.206 124.926 341.831 127.619V127.594Z" fill="white"/>
<path d="M142.188 216.527C139.335 217.874 136.711 219.273 133.986 220.283C133.323 220.516 131.693 219.739 131.438 219.065C130.394 216.268 129.604 213.368 128.993 210.442C128.814 209.613 129.349 208.344 129.961 207.748C130.852 206.894 132.075 206.35 133.221 205.832C136.992 204.097 137.399 204.33 138.851 208.163C139.896 210.934 141.042 213.679 142.163 216.527H142.188Z" fill="white"/>
<path d="M385.925 114.749C383.709 117.132 381.442 119.54 379.251 122C378.028 123.347 376.984 123.658 375.583 122.104C374.233 120.602 372.424 119.514 371.201 117.96C370.666 117.287 370.564 115.371 371.074 114.879C373.672 112.392 376.525 110.191 379.226 107.938C380.856 109.595 383.25 112.03 385.951 114.775L385.925 114.749Z" fill="white"/>
<path d="M399.552 112.29C396.979 110.814 394.355 109.26 391.68 107.784C389.693 106.671 389.184 105.35 390.152 103.071C392.776 96.9073 392.674 96.8555 398.788 99.5488C402.931 101.379 403.993 104.374 401.972 108.535C401.411 109.675 400.8 110.788 400.189 111.902C400.112 112.057 399.832 112.109 399.552 112.264V112.29Z" fill="white"/>
<path d="M254.198 98.9515C256.057 95.9474 257.739 92.9691 259.7 90.224C260.159 89.5766 261.84 89.1104 262.477 89.473C264.948 90.8197 267.215 92.5289 269.839 94.264C267.215 98.1486 264.922 101.567 262.528 105.115C259.878 103.147 257.28 101.23 254.198 98.9515Z" fill="white"/>
<path d="M11.0481 152.975C9.59605 152.664 8.85731 152.509 8.14403 152.354C-1.10305 150.256 -0.00766671 151.007 2.59069 142.616C2.84543 141.787 4.29745 140.7 5.06167 140.777C7.88929 141.088 10.6914 141.71 13.3917 142.564C14.105 142.797 14.9456 144.429 14.8182 145.284C14.538 147.381 13.8757 149.479 13.0351 151.421C12.6784 152.25 11.4557 152.664 11.0226 153.001L11.0481 152.975Z" fill="white"/>
<path d="M411.832 73.0039C412.113 76.2411 412.495 79.0898 412.52 81.9644C412.52 82.6378 411.45 83.8032 410.763 83.9067C407.757 84.4247 404.7 84.6319 401.643 84.9167C401.337 84.9426 400.751 84.9685 400.726 84.9167C400.191 82.5601 399.554 80.2293 399.274 77.8467C399.146 76.9144 399.656 75.1016 400.14 74.9721C403.91 74.1434 407.731 73.6513 411.807 73.0039H411.832Z" fill="white"/>
<path d="M240.291 63.1096C242.889 62.1255 243.348 63.9125 243.526 66.813C243.908 73.5722 244.035 73.5722 237.285 74.3491C233.532 74.7808 231.46 73.1838 231.069 69.5581C230.679 65.9325 232.139 63.9901 235.451 63.7312C236.801 63.524 238.176 63.3686 240.316 63.0837L240.291 63.1096Z" fill="white"/>
<path d="M219.987 230.356C224.368 230.356 228.164 230.123 231.909 230.408C235.781 230.693 234.533 234.733 235.806 236.934C235.883 237.063 234.023 238.695 232.877 239.135C231.017 239.86 228.903 239.938 227.12 240.767C224.929 241.803 223.782 241.233 223.044 239.083C222.076 236.286 221.108 233.489 219.987 230.304V230.356Z" fill="white"/>
<path d="M236.725 203.968C240.215 200.834 243.323 198.063 246.354 195.344C252.85 199.798 252.646 199.669 249.284 206.272C246.813 211.167 246.94 212.721 240.954 207.723C239.68 206.661 238.457 205.496 236.725 203.968Z" fill="white"/>
<path d="M226.329 29.908C222.356 31.3324 218.636 32.679 214.892 33.9221C214.56 34.0257 213.975 33.5854 213.643 33.2488C213.389 32.9639 213.312 32.4719 213.236 32.0575C212.624 29.5195 212.039 26.9557 211.453 24.4177C214.764 23.1229 218.05 21.7503 221.413 20.6108C221.897 20.4554 223.145 21.31 223.425 21.9575C224.521 24.4695 225.336 27.1111 226.355 29.8821L226.329 29.908Z" fill="white"/>
<path d="M338.901 92.4785C341.703 94.5762 344.377 96.4926 346.899 98.5644C347.485 99.0565 348.046 100.455 347.766 100.947C346.594 103.071 345.244 105.168 343.613 106.981C343.155 107.499 341.321 107.37 340.582 106.852C337.754 104.858 335.105 102.579 332.303 100.325C334.519 97.6839 336.531 95.3013 338.901 92.4785Z" fill="white"/>
<path d="M146.674 44.9819C148.177 48.0637 149.501 50.3945 150.444 52.8807C150.75 53.7094 150.444 55.574 149.858 55.8589C146.725 57.3609 143.464 58.5263 140.203 59.7694C139.898 59.8989 139.133 59.6917 139.082 59.5104C138.446 57.0761 136.637 53.7094 137.605 52.3886C139.643 49.5399 143.133 47.7271 146.674 44.9819Z" fill="white"/>
<path d="M132.179 265.264C130.013 261.949 128.128 259.075 126.065 255.889C130.09 254.879 133.987 253.455 137.961 253.144C139.311 253.041 141.095 255.604 142.215 257.262C142.547 257.728 141.553 259.722 140.687 260.292C138.114 262.053 135.287 263.477 132.153 265.264H132.179Z" fill="white"/>
<path d="M113.202 109.001C109.075 107.706 105.483 106.592 101.178 105.246C104.745 101.983 107.827 98.849 111.266 96.2333C112.183 95.5341 114.45 95.9744 115.647 96.6477C116.284 97.0103 116.31 99.1598 116.004 100.351C115.24 103.303 114.145 106.152 113.177 109.001H113.202Z" fill="white"/>
<path d="M178.514 220.334C172.426 220.956 167.535 214.714 168.503 207.903H178.514V220.334Z" fill="white"/>
<path d="M175.536 323.407C177.497 319.134 179.28 314.964 181.369 310.95C181.751 310.225 183.458 309.681 184.324 309.914C185.088 310.121 185.776 311.442 186.107 312.426C186.413 313.281 186.209 314.342 186.235 315.301C186.286 324.857 185.929 325.142 175.536 323.433V323.407Z" fill="white"/>
<path d="M194.029 206.557C191.94 211.063 190.335 214.844 188.348 218.444C187.889 219.299 186.055 219.868 184.985 219.713C184.247 219.584 183.33 218.004 183.253 216.994C182.998 214.249 182.998 211.452 183.177 208.681C183.228 207.956 184.221 206.713 184.858 206.661C187.737 206.454 190.641 206.557 194.054 206.557H194.029Z" fill="white"/>
<path d="M55.1455 143.135C57.8203 140.881 60.0365 138.68 62.5585 136.997C63.8067 136.168 65.7682 135.754 67.2202 136.09C70.5064 136.841 70.812 138.473 68.6722 141.037C67.3221 142.668 65.9975 144.378 64.9021 146.19C63.7812 148.055 62.5839 148.547 60.7753 147.252C59.5525 146.398 58.3043 145.595 57.107 144.74C56.5211 144.326 55.9862 143.834 55.1455 143.135Z" fill="white"/>
<path d="M193.851 261.795C195.201 257.496 196.245 253.585 197.697 249.83C198.028 249.001 199.608 248.38 200.678 248.25C201.162 248.199 202.232 249.571 202.308 250.374C202.614 253.352 202.588 256.356 202.741 259.36C202.843 261.199 201.977 261.847 200.296 261.821C198.309 261.769 196.296 261.821 193.851 261.821V261.795Z" fill="white"/>
<path d="M123.06 320.04H113.711C115.036 316.388 116.106 312.815 117.711 309.5C118.118 308.645 120.182 308.283 121.481 308.308C122.016 308.308 122.908 309.888 122.959 310.82C123.162 313.695 123.035 316.596 123.035 320.04H123.06Z" fill="white"/>
<path d="M169.751 375.226C173.776 376.34 177.648 377.272 181.393 378.567C182.284 378.878 183.125 380.38 183.278 381.416C183.354 381.908 181.851 383.125 180.96 383.254C178.03 383.617 175.075 383.72 172.12 383.669C171.509 383.669 170.49 382.685 170.362 382.037C169.98 379.862 169.929 377.635 169.751 375.226Z" fill="white"/>
<path d="M207.76 219.893C209.823 216.527 211.683 213.289 213.772 210.259C214.205 209.638 215.784 209.353 216.523 209.664C217.16 209.923 217.72 211.295 217.669 212.124C217.593 213.471 216.956 214.791 216.574 216.138C215.249 220.523 212.311 221.775 207.76 219.893Z" fill="white"/>
<path d="M440.439 106.643C441.051 103.665 441.637 100.842 442.223 98.0195C442.528 96.5175 443.293 95.5334 444.846 96.4139C446.375 97.2944 449.534 97.398 448.311 100.195C446.961 103.277 444.745 105.97 442.809 108.767C442.554 109.13 441.306 109.285 441.229 109.155C440.847 108.353 440.669 107.446 440.439 106.643Z" fill="white"/>
<path d="M183.305 289.766C182.516 284.612 181.853 280.132 181.166 275.652C181.42 275.496 181.7 275.367 181.955 275.211C184.07 278.526 186.795 281.634 188.094 285.234C189.139 288.108 185.649 288.341 183.28 289.74L183.305 289.766Z" fill="white"/>
<path d="M235.657 282.463C235.657 282.463 235.558 282.463 235.525 282.463V282.599L235.657 282.463Z" fill="white"/>
<path d="M199.251 360.619C199.251 360.619 199.318 360.619 199.351 360.619C199.351 360.619 199.351 360.552 199.384 360.518L199.251 360.619Z" fill="white"/>
<path d="M235.499 140.783C235.499 140.783 235.631 140.681 235.631 140.647H235.499V140.783Z" fill="white"/>
<path d="M249.471 152.558C249.471 152.558 249.471 152.558 249.434 152.558L249.509 152.482C249.509 152.482 249.434 152.558 249.434 152.596C249.434 152.596 249.471 152.596 249.509 152.596L249.471 152.558Z" fill="white"/>
<path d="M235.657 282.599C235.657 282.599 235.657 282.497 235.657 282.463L235.525 282.599H235.657Z" fill="white"/>
<path d="M249.484 152.559C249.484 152.559 249.484 152.52 249.484 152.482L249.409 152.559C249.409 152.559 249.409 152.559 249.447 152.559H249.484Z" fill="white"/>
<path d="M249.498 152.495C249.498 152.495 249.421 152.495 249.383 152.495V152.572L249.459 152.456L249.498 152.495Z" fill="white"/>
<path d="M235.631 140.783C235.631 140.783 235.631 140.715 235.631 140.647C235.631 140.647 235.499 140.749 235.499 140.783H235.631Z" fill="white"/>
<path d="M379.861 426.556C380.447 426.246 381.033 425.935 381.619 425.624H379.861V426.556Z" fill="white"/>
<path d="M368.475 425.624V430.907C371.073 430.078 373.646 429.172 376.219 428.188C377.059 427.877 377.875 427.515 378.715 427.126V425.624H368.5H368.475Z" fill="white"/>
<path d="M357.116 425.624V433.549C360.529 433.082 363.943 432.28 367.331 431.244V425.624H357.116Z" fill="white"/>
<path d="M345.727 425.624V433.549C349.141 434.067 352.554 434.092 355.942 433.704V425.624H345.727Z" fill="white"/>
<path d="M334.367 425.624V429.664C337.78 431.555 341.194 432.72 344.582 433.367V425.624H334.367Z" fill="white"/>
<path d="M328.685 425.624C330.111 426.867 331.614 427.981 333.193 428.939V425.624H328.685Z" fill="white"/>
<path d="M220.623 432.462C222.839 431.478 224.775 429.873 226.38 427.723C226.89 427.05 227.348 426.325 227.832 425.6H220.649V432.437L220.623 432.462Z" fill="white"/>
<path d="M209.238 425.626V432.696C209.977 432.851 210.741 433.006 211.48 433.162C214.384 433.861 217.059 433.731 219.453 432.903V425.6H209.238V425.626Z" fill="white"/>
<path d="M197.876 425.624V430.208C201.213 431.166 204.652 431.762 208.091 432.461V425.624H197.876Z" fill="white"/>
<path d="M188.169 425.626C190.818 427.231 193.468 428.837 196.321 429.769C196.448 429.821 196.575 429.847 196.703 429.873V425.6H188.169V425.626Z" fill="white"/>
<path d="M391.225 419.744C391.454 419.615 391.658 419.485 391.887 419.33C394.588 417.75 397.161 416.015 399.632 414.15H391.225V419.718V419.744Z" fill="white"/>
<path d="M379.861 414.177V424.562H383.453C385.669 423.241 387.86 421.791 390.076 420.444V414.177H379.861Z" fill="white"/>
<path d="M378.69 414.177H368.475V424.562H378.69V414.177Z" fill="white"/>
<path d="M367.331 414.177H357.116V424.562H367.331V414.177Z" fill="white"/>
<path d="M355.942 414.177H345.727V424.562H355.942V414.177Z" fill="white"/>
<path d="M344.582 414.177H334.367V424.562H344.582V414.177Z" fill="white"/>
<path d="M333.219 414.177H323.004V418.89C323.565 419.745 324.125 420.599 324.737 421.402C325.577 422.516 326.545 423.552 327.59 424.562H333.219V414.177Z" fill="white"/>
<path d="M320.255 414.177C320.739 415.135 321.274 416.093 321.834 417.025V414.177H320.255Z" fill="white"/>
<path d="M231.985 417.958C232.52 416.715 233.03 415.446 233.463 414.177H231.985V417.958Z" fill="white"/>
<path d="M220.623 414.177V424.562H228.52C229.361 423.215 230.125 421.816 230.838 420.392V414.177H220.623Z" fill="white"/>
<path d="M219.453 414.177H209.238V424.562H219.453V414.177Z" fill="white"/>
<path d="M208.091 414.177H197.876V424.562H208.091V414.177Z" fill="white"/>
<path d="M196.702 414.177H186.487V424.562H196.702V414.177Z" fill="white"/>
<path d="M184.986 414.177C184.934 414.772 184.908 415.498 184.908 416.482C184.908 418.32 184.804 420.133 184.908 421.946C184.934 422.464 185.089 423.111 185.322 423.603V414.177H184.96H184.986Z" fill="white"/>
<path d="M401.507 413.141V412.777C401.339 412.889 401.2 413.029 401.032 413.141H401.507Z" fill="white"/>
<path d="M391.225 402.729V413.114H401.007C401.16 413.011 401.287 412.881 401.44 412.778V402.729H391.225Z" fill="white"/>
<path d="M390.076 402.729H379.861V413.114H390.076V402.729Z" fill="white"/>
<path d="M378.69 402.729H368.475V413.114H378.69V402.729Z" fill="white"/>
<path d="M367.331 402.729H357.116V413.114H367.331V402.729Z" fill="white"/>
<path d="M355.942 402.729H345.727V413.114H355.942V402.729Z" fill="white"/>
<path d="M344.582 402.729H334.367V413.114H344.582V402.729Z" fill="white"/>
<path d="M333.193 402.729H322.978V413.114H333.193V402.729Z" fill="white"/>
<path d="M321.832 402.729H316.075C316.966 406.329 318.164 409.8 319.743 413.114H321.832V402.729Z" fill="white"/>
<path d="M231.985 413.114H233.845C235.017 409.644 236.189 406.2 237.36 402.729H231.985V413.114Z" fill="white"/>
<path d="M230.838 402.729H220.623V413.114H230.838V402.729Z" fill="white"/>
<path d="M219.453 402.729H209.238V413.114H219.453V402.729Z" fill="white"/>
<path d="M208.091 402.729H197.876V413.114H208.091V402.729Z" fill="white"/>
<path d="M196.702 413.114V411.612C196.702 411.612 196.55 411.69 196.473 411.69C194.155 411.794 191.837 411.871 189.493 411.897C188.092 411.923 187.15 411.949 186.487 412.104V413.114H196.702Z" fill="white"/>
<path d="M185.364 412.829C185.364 412.829 185.218 413.033 185.189 413.15H185.364V412.829Z" fill="white"/>
<path d="M413.999 401.643C416.419 399.286 418.813 396.878 421.233 394.469C421.921 393.796 422.379 392.345 422.278 391.284H413.999V401.617V401.643Z" fill="white"/>
<path d="M412.825 391.284H402.61V401.669H412.825V391.284Z" fill="white"/>
<path d="M401.44 391.284H391.225V401.669H401.44V391.284Z" fill="white"/>
<path d="M390.076 391.284H379.861V401.669H390.076V391.284Z" fill="white"/>
<path d="M378.69 391.284H368.475V401.669H378.69V391.284Z" fill="white"/>
<path d="M367.331 391.284H357.116V401.669H367.331V391.284Z" fill="white"/>
<path d="M355.942 391.284H345.727V401.669H355.942V391.284Z" fill="white"/>
<path d="M344.582 391.284H334.367V401.669H344.582V391.284Z" fill="white"/>
<path d="M333.193 391.284H322.978V401.669H333.193V391.284Z" fill="white"/>
<path d="M321.83 391.284H314.29C314.29 391.284 314.29 391.413 314.29 391.491C314.57 394.987 315.08 398.38 315.844 401.669H321.83V391.284Z" fill="white"/>
<path d="M231.985 401.669H237.717C238.889 398.198 240.035 394.754 241.181 391.284H231.985V401.669Z" fill="white"/>
<path d="M230.838 391.284H220.623V401.669H230.838V391.284Z" fill="white"/>
<path d="M219.453 391.284H209.238V401.669H219.453V391.284Z" fill="white"/>
<path d="M208.091 391.284H197.876V401.669H208.091V391.284Z" fill="white"/>
<path d="M186.487 391.284V399.364C188.118 399.364 189.773 399.312 191.404 399.312C194.359 399.312 195.913 399.338 196.702 400.037V391.284H186.487Z" fill="white"/>
<path d="M175.128 391.284V399.493C178.542 399.441 181.93 399.416 185.343 399.39V391.284H175.128Z" fill="white"/>
<path d="M173.931 391.284C173.32 393.174 172.862 395.117 172.352 397.007C171.944 398.509 172.632 399.26 173.982 399.415V391.284H173.957H173.931Z" fill="white"/>
<path d="M413.999 390.246H422.023C420.826 386.75 419.475 383.28 418.074 379.861H414.024V390.246H413.999Z" fill="white"/>
<path d="M412.825 390.246V379.861H404.75C404.037 380.224 403.324 380.586 402.61 380.949V390.246H412.825Z" fill="white"/>
<path d="M401.463 390.247V381.52C398.075 383.177 394.662 384.757 391.248 386.336V390.247H401.463Z" fill="white"/>
<path d="M390.076 390.248V386.855C386.357 388.512 382.893 388.642 379.861 387.71V390.222H390.076V390.248Z" fill="white"/>
<path d="M368.476 390.246H378.691V387.32C375.277 385.921 372.526 383.202 370.717 379.861H368.45V390.246H368.476Z" fill="white"/>
<path d="M367.331 379.835H357.116V390.22H367.331V379.835Z" fill="white"/>
<path d="M355.942 379.835H345.727V390.22H355.942V379.835Z" fill="white"/>
<path d="M344.582 379.835H334.367V390.22H344.582V379.835Z" fill="white"/>
<path d="M333.193 379.835H322.978V390.22H333.193V379.835Z" fill="white"/>
<path d="M321.831 379.835H314.138C313.985 383.279 314.011 386.75 314.215 390.22H321.831V379.835Z" fill="white"/>
<path d="M243.372 384.756C243.907 383.124 244.442 381.493 244.977 379.861H243.372V384.756Z" fill="white"/>
<path d="M242.199 390.247V388.253C241.97 388.926 241.766 389.6 241.537 390.247H242.199Z" fill="white"/>
<path d="M235.705 379.835C235.604 384.263 235.018 385.688 232.012 385.921V390.22H241.564C241.794 389.547 241.998 388.873 242.227 388.226V379.835H235.705Z" fill="white"/>
<path d="M223.273 383.668C223.172 382.399 223.146 381.13 223.121 379.861H220.599V390.246H230.814V385.999C229.489 385.999 227.833 385.87 225.693 385.714C224.802 385.636 223.324 384.445 223.248 383.694L223.273 383.668Z" fill="white"/>
<path d="M219.453 379.835H209.238V390.22H219.453V379.835Z" fill="white"/>
<path d="M208.091 379.835H197.876V390.22H208.091V379.835Z" fill="white"/>
<path d="M196.702 379.835H186.487V390.22H196.702V379.835Z" fill="white"/>
<path d="M185.343 390.246V379.861H184.986C184.986 380.638 184.986 381.389 185.063 382.166C185.292 384.989 184.273 385.921 181.42 385.766C179.459 385.662 176.376 385.921 175.663 387.139C175.459 387.501 175.281 387.915 175.103 388.304V390.246H185.318H185.343Z" fill="white"/>
<path d="M417.616 378.8C417.387 378.23 417.157 377.635 416.928 377.065C416.266 375.485 415.4 374.941 413.999 375.33V378.8H417.616Z" fill="white"/>
<path d="M412.825 375.798C412.825 375.798 412.723 375.824 412.698 375.85C410.762 376.86 408.8 377.818 406.864 378.777H412.825V375.772V375.798Z" fill="white"/>
<path d="M370.207 378.802C369.723 377.74 369.315 376.626 369.035 375.513C368.806 374.658 368.627 373.777 368.475 372.897V378.802H370.207Z" fill="white"/>
<path d="M367.331 368.416H357.116V378.8H367.331V368.416Z" fill="white"/>
<path d="M355.942 368.416H345.727V378.8H355.942V368.416Z" fill="white"/>
<path d="M344.582 368.416H334.367V378.8H344.582V368.416Z" fill="white"/>
<path d="M333.193 368.416H322.978V378.8H333.193V368.416Z" fill="white"/>
<path d="M321.833 368.416H314.955C314.649 371.886 314.369 375.33 314.19 378.8H321.833V368.416Z" fill="white"/>
<path d="M243.372 378.8H245.308C246.429 375.33 247.55 371.886 248.671 368.416H243.372V378.8Z" fill="white"/>
<path d="M235.68 374.657C235.909 375.019 235.731 375.693 235.731 376.237C235.731 377.195 235.731 378.024 235.731 378.8H242.227V368.416H232.012V372.715C232.623 372.715 233.26 372.74 233.871 372.792C234.534 372.818 235.221 373.932 235.705 374.657H235.68Z" fill="white"/>
<path d="M230.838 372.662V368.389H220.623V378.774H223.119C223.119 376.832 223.145 374.812 223.145 372.662C225.922 372.662 228.418 372.61 230.813 372.662H230.838Z" fill="white"/>
<path d="M219.453 368.416H209.238V378.8H219.453V368.416Z" fill="white"/>
<path d="M208.091 368.416H197.876V378.8H208.091V368.416Z" fill="white"/>
<path d="M196.702 378.799V371.755C196.218 372.04 195.607 372.196 194.715 372.17C192.295 372.118 189.85 372.48 187.43 372.506C187.073 372.506 186.768 372.558 186.487 372.61V378.774H196.702V378.799Z" fill="white"/>
<path d="M185.342 373.103C184.884 373.543 184.706 374.268 184.833 375.382C184.96 376.496 184.986 377.635 184.986 378.775H185.342V373.103Z" fill="white"/>
<path d="M367.331 356.97H357.116V367.355H367.331V356.97Z" fill="white"/>
<path d="M355.942 356.97H345.727V367.355H355.942V356.97Z" fill="white"/>
<path d="M344.582 356.97H334.367V367.355H344.582V356.97Z" fill="white"/>
<path d="M333.193 356.97H322.978V367.355H333.193V356.97Z" fill="white"/>
<path d="M321.832 356.97H315.922C315.846 357.98 315.719 359.016 315.642 360.026C315.464 362.486 315.235 364.92 315.031 367.355H321.832V356.97Z" fill="white"/>
<path d="M243.372 367.355H249.027C250.123 363.91 251.193 360.44 252.263 356.97H243.398V367.355H243.372Z" fill="white"/>
<path d="M242.2 356.97H231.985V367.355H242.2V356.97Z" fill="white"/>
<path d="M230.838 356.97H220.623V367.355H230.838V356.97Z" fill="white"/>
<path d="M219.453 367.355V356.97H210.818C210.818 356.97 210.818 357.125 210.818 357.203C210.894 359.093 210.359 359.974 209.238 360.311V367.355H219.453Z" fill="white"/>
<path d="M208.091 367.353V360.464C207.887 360.464 207.709 360.464 207.48 360.464C204.754 360.361 202.028 360.516 199.328 360.542C198.844 361.682 198.233 362.795 197.876 363.961V367.327H208.091V367.353Z" fill="white"/>
<path d="M367.331 345.522H357.116V355.907H367.331V345.522Z" fill="white"/>
<path d="M355.942 345.522H345.727V355.907H355.942V345.522Z" fill="white"/>
<path d="M344.582 345.522H334.367V355.907H344.582V345.522Z" fill="white"/>
<path d="M333.193 345.522H322.978V355.907H333.193V345.522Z" fill="white"/>
<path d="M321.832 345.522H317.145C316.712 348.967 316.33 352.437 316.024 355.907H321.832V345.522Z" fill="white"/>
<path d="M254.734 348.708C255.04 347.646 255.346 346.584 255.651 345.522H254.734V348.708Z" fill="white"/>
<path d="M243.372 345.522V355.907H252.568C252.899 354.82 253.256 353.732 253.587 352.644V345.522H243.372Z" fill="white"/>
<path d="M242.2 345.522H231.985V355.907H242.2V345.522Z" fill="white"/>
<path d="M230.838 345.522H220.623V355.907H230.838V345.522Z" fill="white"/>
<path d="M219.451 345.522H210.586C210.611 348.993 210.688 352.437 210.79 355.907H219.451V345.522Z" fill="white"/>
<path d="M367.331 334.077H357.116V344.462H367.331V334.077Z" fill="white"/>
<path d="M355.942 334.077H345.727V344.462H355.942V334.077Z" fill="white"/>
<path d="M344.582 334.077H334.367V344.462H344.582V334.077Z" fill="white"/>
<path d="M333.193 334.077H322.978V344.462H333.193V334.077Z" fill="white"/>
<path d="M321.831 334.077H318.774C318.24 337.521 317.73 340.991 317.271 344.462H321.831V334.077Z" fill="white"/>
<path d="M254.734 344.462H255.957C256.925 341.017 257.868 337.547 258.785 334.077H254.734V344.462Z" fill="white"/>
<path d="M253.587 334.077H243.372V344.462H253.587V334.077Z" fill="white"/>
<path d="M242.2 334.077H231.985V344.462H242.2V334.077Z" fill="white"/>
<path d="M230.838 334.077H220.623V344.462H230.838V334.077Z" fill="white"/>
<path d="M219.452 334.077H211.861C210.791 334.413 210.383 335.294 210.434 336.951C210.511 339.463 210.536 341.949 210.562 344.462H219.452V334.077Z" fill="white"/>
<path d="M368.475 330.035C368.627 327.574 368.806 325.114 369.01 322.628H368.475V330.035Z" fill="white"/>
<path d="M367.331 322.628H357.116V333.013H367.331V322.628Z" fill="white"/>
<path d="M355.942 322.628H345.727V333.013H355.942V322.628Z" fill="white"/>
<path d="M344.582 322.628H334.367V333.013H344.582V322.628Z" fill="white"/>
<path d="M333.193 322.628H322.978V333.013H333.193V322.628Z" fill="white"/>
<path d="M321.833 322.628H320.738C320.101 326.072 319.515 329.543 318.955 333.013H321.859V322.628H321.833Z" fill="white"/>
<path d="M254.734 333.013H259.065C259.957 329.568 260.823 326.098 261.663 322.628H254.76V333.013H254.734Z" fill="white"/>
<path d="M253.587 322.628H243.372V333.013H253.587V322.628Z" fill="white"/>
<path d="M242.2 322.628H231.985V333.013H242.2V322.628Z" fill="white"/>
<path d="M230.839 322.628H223.121C223.121 325.528 223.121 328.429 223.121 331.329C223.121 332.081 222.993 332.624 222.764 333.039H230.814V322.654L230.839 322.628Z" fill="white"/>
<path d="M368.475 321.566H369.111C369.417 318.095 369.748 314.625 370.156 311.181H368.5V321.566H368.475Z" fill="white"/>
<path d="M367.331 311.181H357.116V321.566H367.331V311.181Z" fill="white"/>
<path d="M355.942 311.181H345.727V321.566H355.942V311.181Z" fill="white"/>
<path d="M344.582 311.181H334.367V321.566H344.582V311.181Z" fill="white"/>
<path d="M333.193 311.181H322.978V321.566H333.193V311.181Z" fill="white"/>
<path d="M321.833 316.648C321.527 318.28 321.221 319.937 320.916 321.569H321.833V316.648Z" fill="white"/>
<path d="M254.734 321.566H261.918C262.759 318.095 263.574 314.651 264.389 311.181H254.76V321.566H254.734Z" fill="white"/>
<path d="M253.587 311.181H243.372V321.566H253.587V311.181Z" fill="white"/>
<path d="M242.2 311.181H231.985V321.566H242.2V311.181Z" fill="white"/>
<path d="M230.839 311.181H223.095C223.095 314.651 223.095 318.095 223.095 321.566H230.813V311.181H230.839Z" fill="white"/>
<path d="M368.475 310.146H370.258C370.563 307.634 370.895 305.122 371.251 302.636C371.404 301.678 371.532 300.719 371.684 299.761H368.475V310.146Z" fill="white"/>
<path d="M367.331 299.735H357.116V310.12H367.331V299.735Z" fill="white"/>
<path d="M355.942 299.735H345.727V310.12H355.942V299.735Z" fill="white"/>
<path d="M344.582 299.735H334.367V310.12H344.582V299.735Z" fill="white"/>
<path d="M333.219 299.735H325.169C324.482 303.205 323.794 306.649 323.106 310.12H333.219V299.735Z" fill="white"/>
<path d="M266.12 303.619C266.425 302.325 266.706 301.03 267.011 299.735H266.12V303.619Z" fill="white"/>
<path d="M264.645 310.147H264.981V308.723C264.904 309.008 264.852 309.292 264.774 309.577C264.722 309.759 264.67 309.966 264.645 310.147Z" fill="white"/>
<path d="M254.734 299.735V310.12H264.618C264.669 309.938 264.72 309.731 264.746 309.55C264.822 309.265 264.873 308.98 264.949 308.695V299.735H254.734Z" fill="white"/>
<path d="M253.587 299.735H243.372V310.12H253.587V299.735Z" fill="white"/>
<path d="M242.2 299.735H231.985V310.12H242.2V299.735Z" fill="white"/>
<path d="M230.837 299.735H223.042C223.042 303.205 223.067 306.649 223.093 310.12H230.837V299.735Z" fill="white"/>
<path d="M368.475 298.7H371.863C372.372 295.23 372.882 291.786 373.417 288.315H368.475V298.7Z" fill="white"/>
<path d="M367.331 288.315H357.116V298.7H367.331V288.315Z" fill="white"/>
<path d="M355.942 288.315H345.727V298.7H355.942V288.315Z" fill="white"/>
<path d="M344.582 288.315H334.367V298.7H344.582V288.315Z" fill="white"/>
<path d="M333.22 288.315H327.514C327.183 289.895 326.801 291.449 326.495 293.029C326.113 294.919 325.731 296.81 325.374 298.7H333.22V288.315Z" fill="white"/>
<path d="M266.12 298.7H267.24C268.03 295.23 268.82 291.786 269.61 288.315H266.12V298.7Z" fill="white"/>
<path d="M264.949 288.315H254.734V298.7H264.949V288.315Z" fill="white"/>
<path d="M243.372 295.852V298.7H253.587V288.315H248.441C248.441 290.646 248.467 293.081 248.467 295.826C246.709 295.826 245.028 295.877 243.372 295.877V295.852Z" fill="white"/>
<path d="M235.884 293.029C235.756 291.475 235.705 289.895 235.68 288.315H232.012V298.7H242.227V295.852C240.826 295.852 239.425 295.8 238.075 295.696C237.234 295.619 235.986 294.039 235.909 293.055L235.884 293.029Z" fill="white"/>
<path d="M230.841 288.315H222.995C223.02 291.786 223.02 295.23 223.046 298.7H230.841V288.315Z" fill="white"/>
<path d="M368.475 287.255H373.569C374.104 283.785 374.639 280.34 375.2 276.87H368.475V287.255Z" fill="white"/>
<path d="M367.331 276.87H357.116V287.255H367.331V276.87Z" fill="white"/>
<path d="M355.942 276.87H345.727V287.255H355.942V276.87Z" fill="white"/>
<path d="M344.582 276.87H334.367V287.255H344.582V276.87Z" fill="white"/>
<path d="M333.219 276.87H330.085C329.27 280.314 328.506 283.785 327.767 287.255H333.244V276.87H333.219Z" fill="white"/>
<path d="M266.12 287.255H269.839C270.629 283.785 271.418 280.34 272.208 276.87H266.12V287.255Z" fill="white"/>
<path d="M264.949 276.87H254.734V287.255H264.949V276.87Z" fill="white"/>
<path d="M248.492 285.287C248.467 285.934 248.441 286.608 248.441 287.255H253.587V276.87H243.372V282.542C244.238 282.542 245.104 282.542 245.97 282.542C247.779 282.542 248.594 283.293 248.518 285.287H248.492Z" fill="white"/>
<path d="M235.499 282.436V282.571H235.631C235.631 282.571 235.631 282.47 235.631 282.436C235.598 282.436 235.532 282.436 235.499 282.436Z" fill="white"/>
<path d="M235.655 287.252C235.655 285.673 235.655 284.119 235.629 282.539H235.527V282.436C234.355 282.436 233.184 282.436 232.012 282.436V287.252H235.655Z" fill="white"/>
<path d="M235.627 282.438C235.627 282.438 235.627 282.516 235.627 282.542C237.818 282.542 240.008 282.542 242.225 282.542V276.87H235.525V282.438C235.525 282.438 235.601 282.438 235.627 282.438Z" fill="white"/>
<path d="M230.838 282.435C229.259 282.435 227.68 282.435 226.126 282.331C223.604 282.202 222.967 283.108 222.992 285.646C222.992 286.19 222.992 286.708 222.992 287.252H230.838V282.435Z" fill="white"/>
<path d="M368.475 275.808H375.353C375.913 272.337 376.448 268.893 377.034 265.423H368.475V275.808Z" fill="white"/>
<path d="M367.331 265.423H357.116V275.808H367.331V265.423Z" fill="white"/>
<path d="M355.942 265.423H345.727V275.808H355.942V265.423Z" fill="white"/>
<path d="M344.582 265.423H334.367V275.808H344.582V265.423Z" fill="white"/>
<path d="M333.219 265.423H332.863C331.997 268.893 331.156 272.337 330.315 275.808H333.194V265.423H333.219Z" fill="white"/>
<path d="M266.12 275.808H272.437C273.201 272.337 273.94 268.893 274.704 265.423H266.12V275.808Z" fill="white"/>
<path d="M264.949 265.423H254.734V275.808H264.949V265.423Z" fill="white"/>
<path d="M253.587 265.423H243.372V275.808H253.587V265.423Z" fill="white"/>
<path d="M242.198 265.423H235.499V275.808H242.198V265.423Z" fill="white"/>
<path d="M368.475 253.974V264.359H377.212C377.696 261.484 378.18 258.609 378.69 255.735V253.974H368.475Z" fill="white"/>
<path d="M367.331 253.974H357.116V264.359H367.331V253.974Z" fill="white"/>
<path d="M355.942 253.974H345.727V264.359H355.942V253.974Z" fill="white"/>
<path d="M344.582 264.359V253.974H335.742C335.284 255.812 334.825 257.625 334.367 259.464V264.359H344.582Z" fill="white"/>
<path d="M333.23 264.049C333.23 264.049 333.172 264.282 333.143 264.428H333.23V264.049Z" fill="white"/>
<path d="M273.762 253.975C273.507 256.668 272.31 256.72 267.521 256.72C267.011 256.72 266.553 256.72 266.12 256.72V264.334H274.934C275.418 262.159 275.876 260.009 276.335 257.834V253.949H273.762V253.975Z" fill="white"/>
<path d="M261.588 253.974H254.761V264.359H264.976V256.771C262.148 256.874 261.664 256.822 261.588 253.974Z" fill="white"/>
<path d="M253.587 253.974H243.372V264.359H253.587V253.974Z" fill="white"/>
<path d="M242.199 253.974H232.926C232.646 254.802 232.392 255.605 232.111 256.46C233.691 256.822 234.659 257.03 235.499 257.211V264.359H242.199V253.974Z" fill="white"/>
<path d="M379.861 249.158C380.269 246.956 380.676 244.755 381.084 242.528H379.861V249.158Z" fill="white"/>
<path d="M378.69 242.528H368.475V252.913H378.69V242.528Z" fill="white"/>
<path d="M367.331 242.528H357.116V252.913H367.331V242.528Z" fill="white"/>
<path d="M355.942 242.528H345.727V252.913H355.942V242.528Z" fill="white"/>
<path d="M344.581 242.528H338.595C337.754 245.998 336.888 249.442 336.022 252.913H344.581V242.528Z" fill="white"/>
<path d="M277.483 252.524C278.018 249.986 278.604 247.422 279.139 244.885C279.318 244.108 279.445 243.305 279.623 242.528H277.483V252.524Z" fill="white"/>
<path d="M269.789 244.056C273.101 243.564 274.451 244.962 273.788 248.329C273.661 248.95 273.788 249.598 273.788 250.245C273.788 251.307 273.839 252.188 273.788 252.913H276.31V242.528H266.095V243.797C266.859 243.823 267.751 243.875 268.821 243.952C269.127 243.952 269.458 244.082 269.763 244.03L269.789 244.056Z" fill="white"/>
<path d="M264.949 243.797V242.528H254.734V252.913H261.561C261.561 252.317 261.561 251.644 261.561 250.867C261.587 245.169 261.612 243.874 264.924 243.797H264.949Z" fill="white"/>
<path d="M248.39 242.528H243.372V243.771C244.213 243.771 245.079 243.771 245.919 243.823C247.321 243.875 248.11 243.538 248.365 242.528H248.39Z" fill="white"/>
<path d="M253.586 252.913V242.528H248.389C248.109 243.538 247.345 243.875 245.944 243.823C245.103 243.797 244.237 243.771 243.396 243.771V252.913H253.612H253.586Z" fill="white"/>
<path d="M242.203 243.745C241.005 243.745 239.808 243.771 238.611 243.823C237.719 243.849 236.293 244.082 236.089 244.626C235.07 247.345 234.153 250.116 233.261 252.913H242.203V243.745Z" fill="white"/>
<path d="M379.861 241.465H381.288C381.721 239.109 382.154 236.726 382.613 234.37C382.816 233.256 383.097 232.168 383.326 231.055H379.887V241.44L379.861 241.465Z" fill="white"/>
<path d="M378.69 231.081H368.475V241.465H378.69V231.081Z" fill="white"/>
<path d="M367.331 231.081H357.116V241.465H367.331V231.081Z" fill="white"/>
<path d="M355.942 231.081H345.727V241.465H355.942V231.081Z" fill="white"/>
<path d="M344.58 231.081H341.345C340.504 234.551 339.689 237.995 338.848 241.465H344.58V231.081Z" fill="white"/>
<path d="M277.483 241.465H279.826C280.539 238.021 281.227 234.551 281.89 231.081H277.457V241.465H277.483Z" fill="white"/>
<path d="M276.335 231.081H266.12V241.465H276.335V231.081Z" fill="white"/>
<path d="M264.949 231.081H254.734V241.465H264.949V231.081Z" fill="white"/>
<path d="M253.585 231.081H248.44C248.44 234.732 248.338 237.995 248.49 241.232C248.49 241.336 248.49 241.388 248.49 241.465H253.611V231.081H253.585Z" fill="white"/>
<path d="M379.862 230.018H383.531C384.244 226.548 384.957 223.078 385.747 219.633H379.837V230.018H379.862Z" fill="white"/>
<path d="M378.69 219.633H368.475V230.018H378.69V219.633Z" fill="white"/>
<path d="M367.331 219.633H357.116V230.018H367.331V219.633Z" fill="white"/>
<path d="M355.942 219.633H345.727V230.018H355.942V219.633Z" fill="white"/>
<path d="M344.581 219.633H344.097C343.256 223.104 342.441 226.548 341.601 230.018H344.581V219.633Z" fill="white"/>
<path d="M277.483 230.018H282.12C282.782 226.548 283.419 223.104 284.056 219.633H277.483V230.018Z" fill="white"/>
<path d="M276.335 219.633H266.12V230.018H276.335V219.633Z" fill="white"/>
<path d="M264.949 219.633H254.734V229.552C255.881 229.707 256.696 229.008 257.435 227.687C258.377 225.978 259.371 224.295 260.339 222.586C260.619 222.637 260.899 222.663 261.179 222.715C261.281 224.45 261.281 226.185 261.51 227.895C261.663 228.905 261.51 229.552 261.179 230.044H264.949V219.659V219.633Z" fill="white"/>
<path d="M236.979 215.777C236.545 216.45 236.112 217.124 235.628 217.771C234.482 219.377 234.711 220.594 236.265 221.5C238.456 222.769 240.876 223.676 242.99 225.022C243.169 225.126 243.322 225.204 243.5 225.307V215.777H236.953H236.979Z" fill="white"/>
<path d="M379.861 218.601H386.026C386.816 215.13 387.656 211.66 388.497 208.216H379.887V218.601H379.861Z" fill="white"/>
<path d="M378.69 208.216H368.475V218.601H378.69V208.216Z" fill="white"/>
<path d="M367.331 208.216H357.116V218.601H367.331V208.216Z" fill="white"/>
<path d="M355.967 218.601V208.216H346.873C346.491 209.77 346.134 211.324 345.752 212.877V218.601H355.967Z" fill="white"/>
<path d="M344.583 217.664C344.506 217.975 344.428 218.286 344.35 218.596H344.583V217.664Z" fill="white"/>
<path d="M277.483 218.601H284.233C284.87 215.13 285.507 211.686 286.118 208.216H277.457V218.601H277.483Z" fill="white"/>
<path d="M276.335 208.216H266.12V218.601H276.335V208.216Z" fill="white"/>
<path d="M264.95 218.601V208.216H261.384C261.384 211.039 261.384 213.861 261.359 216.71C261.359 217.254 261.027 217.798 260.798 218.575C258.709 217.306 256.722 216.115 254.761 214.949V218.627H264.976L264.95 218.601Z" fill="white"/>
<path d="M253.918 209.25C253.204 208.81 252.491 208.396 251.778 207.956C250.504 209.898 249.307 211.763 248.084 213.627H253.918V209.25Z" fill="white"/>
<path d="M391.225 197.024C391.225 197.024 391.281 196.855 391.281 196.742H391.225V197.024Z" fill="white"/>
<path d="M379.861 196.767V207.151H388.726C389.159 205.339 389.618 203.5 390.076 201.687V196.767H379.861Z" fill="white"/>
<path d="M378.69 196.767H368.475V207.151H378.69V196.767Z" fill="white"/>
<path d="M367.331 196.767H357.116V207.151H367.331V196.767Z" fill="white"/>
<path d="M355.968 196.767H349.625C348.785 200.237 347.97 203.681 347.129 207.151H355.968V196.767Z" fill="white"/>
<path d="M277.483 196.767V207.151H286.323C286.476 206.349 286.603 205.546 286.756 204.769C287.087 202.956 287.393 201.143 287.698 199.305V196.767H277.483Z" fill="white"/>
<path d="M276.335 196.767H266.12V207.151H276.335V196.767Z" fill="white"/>
<path d="M264.947 196.767H261.305C261.356 200.237 261.381 203.681 261.381 207.151H264.947V196.767Z" fill="white"/>
<path d="M197.876 202.258C198.869 200.316 200.016 198.477 201.239 196.742H197.876V202.258Z" fill="white"/>
<path d="M186.487 196.767V204.458C189.646 204.562 192.805 204.484 195.964 204.355C196.193 204.355 196.448 204.199 196.702 204.018V196.793H186.487V196.767Z" fill="white"/>
<path d="M184.885 196.768C184.885 198.762 184.885 200.679 184.962 202.595C184.962 202.88 185.144 203.294 185.351 203.631V196.742H184.885V196.768Z" fill="white"/>
<path d="M391.225 195.706H391.556C392.422 192.236 393.238 188.792 394.078 185.321H391.225V195.706Z" fill="white"/>
<path d="M390.076 185.321H379.861V195.706H390.076V185.321Z" fill="white"/>
<path d="M378.69 185.321H368.475V195.706H378.69V185.321Z" fill="white"/>
<path d="M367.331 185.321H357.116V195.706H367.331V185.321Z" fill="white"/>
<path d="M355.968 185.321H352.376C351.536 188.792 350.695 192.236 349.88 195.706H355.968V185.321Z" fill="white"/>
<path d="M288.869 192.598C289.276 190.19 289.684 187.756 290.091 185.321H288.869V192.598Z" fill="white"/>
<path d="M287.698 185.321H277.483V195.706H287.698V185.321Z" fill="white"/>
<path d="M276.335 185.321H266.12V195.706H276.335V185.321Z" fill="white"/>
<path d="M264.949 185.321H255.32C255.116 186.021 254.938 186.72 254.734 187.445V192.106C256.314 192.132 257.817 192.106 259.243 192.469C260.084 192.676 261.256 193.971 261.281 194.8C261.281 195.111 261.281 195.421 261.281 195.732H264.949V185.347V185.321Z" fill="white"/>
<path d="M253.46 192.104C253.46 192.104 253.547 192.104 253.605 192.104V191.639C253.547 191.784 253.518 191.959 253.46 192.104Z" fill="white"/>
<path d="M209.237 187.626C209.798 187.082 210.333 186.538 210.893 186.021C211.173 185.762 211.454 185.554 211.708 185.321H209.212V187.626H209.237Z" fill="white"/>
<path d="M197.876 185.321V195.706H202.028C203.862 193.272 205.926 190.993 208.117 188.792V185.321H197.901H197.876Z" fill="white"/>
<path d="M196.702 195.705V192.234H186.487V195.705H196.702Z" fill="white"/>
<path d="M185.35 192.234H184.909C184.909 193.426 184.909 194.565 184.909 195.705H185.375V192.234H185.35Z" fill="white"/>
<path d="M448.106 176.049C449.227 175.609 450.195 174.909 450.934 173.874H448.106V176.049Z" fill="white"/>
<path d="M436.746 173.874V176.67C439.293 176.67 441.841 176.67 444.388 176.67C445.305 176.67 446.146 176.593 446.961 176.411V173.874H436.746Z" fill="white"/>
<path d="M425.357 173.874V176.645C428.771 176.645 432.159 176.645 435.573 176.645V173.848H425.357V173.874Z" fill="white"/>
<path d="M413.999 173.874V176.645C417.412 176.645 420.8 176.645 424.214 176.645V173.874H413.999Z" fill="white"/>
<path d="M402.61 173.874V176.619C406.024 176.619 409.412 176.619 412.825 176.619V173.848H402.61V173.874Z" fill="white"/>
<path d="M391.225 173.874V184.258H394.333C394.766 182.497 395.199 180.762 395.607 179.027C396.04 177.188 396.88 176.515 398.664 176.645C399.581 176.722 400.523 176.696 401.44 176.645V173.874H391.225Z" fill="white"/>
<path d="M390.076 173.874H379.861V184.258H390.076V173.874Z" fill="white"/>
<path d="M378.69 173.874H368.475V184.258H378.69V173.874Z" fill="white"/>
<path d="M367.331 173.874H357.116V184.258H367.331V173.874Z" fill="white"/>
<path d="M355.967 173.874H345.752V176.774H354.082C353.623 179.234 353.292 181.436 352.783 183.611C352.732 183.818 352.681 184.025 352.63 184.233H355.967V173.848V173.874Z" fill="white"/>
<path d="M334.367 173.874V176.774H344.582V173.874H334.367Z" fill="white"/>
<path d="M322.978 173.874V176.774H333.193V173.874H322.978Z" fill="white"/>
<path d="M311.618 173.874V176.774H321.833V173.874H311.618Z" fill="white"/>
<path d="M300.229 173.874V176.774H310.444V173.874H300.229Z" fill="white"/>
<path d="M288.869 173.874V184.258H290.27C290.677 181.772 291.085 179.286 291.518 176.774H299.109V173.874H288.894H288.869Z" fill="white"/>
<path d="M287.698 173.874H277.483V184.258H287.698V173.874Z" fill="white"/>
<path d="M276.335 173.874H266.12V184.258H276.335V173.874Z" fill="white"/>
<path d="M264.949 173.874H254.734V176.67C255.6 176.67 256.543 176.67 257.689 176.67C256.976 179.286 256.288 181.798 255.6 184.258H264.949V173.874Z" fill="white"/>
<path d="M243.372 173.874V176.567C246.633 176.567 249.893 176.645 253.154 176.645H253.587V173.848H243.372V173.874Z" fill="white"/>
<path d="M231.985 173.874V176.878C232.597 176.826 233.183 176.748 233.794 176.722C236.596 176.593 239.398 176.567 242.2 176.567V173.874H231.985Z" fill="white"/>
<path d="M208.091 184.259V179.571C207.811 179.571 207.531 179.597 207.199 179.571C204.881 179.442 202.538 179.83 200.22 179.727C198.92 179.675 198.233 180.011 197.876 180.737V184.259H208.091Z" fill="white"/>
<path d="M448.106 172.813H451.571C451.749 172.476 451.902 172.113 452.029 171.725C452.793 169.498 453.838 167.374 454.551 165.121C454.831 164.215 455.111 163.308 455.417 162.402H448.081V172.787L448.106 172.813Z" fill="white"/>
<path d="M446.961 162.428H436.746V172.813H446.961V162.428Z" fill="white"/>
<path d="M435.573 162.428H425.357V172.813H435.573V162.428Z" fill="white"/>
<path d="M424.214 162.428H413.999V172.813H424.214V162.428Z" fill="white"/>
<path d="M412.825 162.428H402.61V172.813H412.825V162.428Z" fill="white"/>
<path d="M401.44 162.428H391.225V172.813H401.44V162.428Z" fill="white"/>
<path d="M390.076 162.428H379.861V172.813H390.076V162.428Z" fill="white"/>
<path d="M368.678 165.821C368.678 165.821 368.551 165.821 368.475 165.821V172.813H378.69V162.428H375.429C375.174 165.873 374.053 165.873 368.678 165.821Z" fill="white"/>
<path d="M362.898 162.428H357.116V172.813H367.331V165.795C363.739 165.717 363 165.406 362.898 162.428Z" fill="white"/>
<path d="M355.942 162.428H345.727V172.813H355.942V162.428Z" fill="white"/>
<path d="M344.582 162.428H334.367V172.813H344.582V162.428Z" fill="white"/>
<path d="M333.193 162.428H322.978V172.813H333.193V162.428Z" fill="white"/>
<path d="M321.833 162.428H311.618V172.813H321.833V162.428Z" fill="white"/>
<path d="M310.444 162.428H300.229V172.813H310.444V162.428Z" fill="white"/>
<path d="M297.148 165.639C294.422 165.898 291.645 165.743 288.894 165.769C288.894 165.769 288.894 165.769 288.869 165.769V172.813H299.084V163.8C298.905 164.525 297.836 165.561 297.148 165.639Z" fill="white"/>
<path d="M286.577 163.127C286.577 162.894 286.577 162.661 286.577 162.428H277.457V172.813H287.672V165.562C286.781 165.199 286.475 164.371 286.551 163.127H286.577Z" fill="white"/>
<path d="M276.335 162.428H266.12V172.813H276.335V162.428Z" fill="white"/>
<path d="M259.04 165.82C257.614 165.743 256.187 165.769 254.761 165.769V172.787H264.976V162.402H261.282C261.282 162.713 261.308 162.997 261.333 163.308C261.409 165.043 260.951 165.898 259.066 165.82H259.04Z" fill="white"/>
<path d="M248.873 164.189C248.873 163.594 248.924 163.024 248.95 162.428H243.396V172.813H253.612V165.769C252.796 165.769 251.981 165.743 251.166 165.665C250.351 165.588 248.899 164.681 248.899 164.163L248.873 164.189Z" fill="white"/>
<path d="M242.2 162.428H231.985V172.813H242.2V162.428Z" fill="white"/>
<path d="M230.838 162.428H220.623V172.813H230.838V162.428Z" fill="white"/>
<path d="M219.454 162.428H210.538C210.589 165.898 210.64 169.343 210.716 172.813H219.479V162.428H219.454Z" fill="white"/>
<path d="M448.106 150.979V161.364H455.774C456.64 158.671 457.481 155.977 458.322 153.284V150.979H448.106Z" fill="white"/>
<path d="M446.961 150.979H436.746V161.364H446.961V150.979Z" fill="white"/>
<path d="M435.573 150.979H425.357V161.364H435.573V150.979Z" fill="white"/>
<path d="M424.214 150.979H413.999V161.364H424.214V150.979Z" fill="white"/>
<path d="M412.825 150.979H402.61V161.364H412.825V150.979Z" fill="white"/>
<path d="M390.076 150.979H379.861V161.364H390.076V150.979Z" fill="white"/>
<path d="M368.475 153.051C368.831 153.051 369.188 153.051 369.595 153.051C373.535 153.051 375.505 155.01 375.505 158.93C375.505 159.862 375.505 160.665 375.505 161.364H378.715V150.979H368.5V153.025L368.475 153.051Z" fill="white"/>
<path d="M367.331 153.051V150.979H357.116V161.364H362.898C362.898 160.794 362.898 160.173 362.949 159.473C363.102 153.905 363.128 153.154 367.331 153.051Z" fill="white"/>
<path d="M355.942 150.979H345.727V161.364H355.942V150.979Z" fill="white"/>
<path d="M344.582 150.979H334.367V161.364H344.582V150.979Z" fill="white"/>
<path d="M322.978 152.377V161.364H333.193V150.979H324.328C324.073 151.471 323.513 151.937 322.978 152.377Z" fill="white"/>
<path d="M312.305 150.979H311.618V161.364H321.833V152.844C321.833 152.844 321.68 152.844 321.629 152.844C315.897 153.128 313.274 153.025 312.305 151.005V150.979Z" fill="white"/>
<path d="M310.444 150.979H300.229V161.364H310.444V150.979Z" fill="white"/>
<path d="M299.084 153.025V150.979H288.869V153.18C289.582 153.077 290.524 153.051 291.824 153.025C294.091 152.973 296.358 153.025 299.084 153.025Z" fill="white"/>
<path d="M287.698 153.621V150.979H277.483V161.364H286.629C286.68 160.328 286.705 159.318 286.73 158.282C286.807 155.459 286.858 154.19 287.673 153.595L287.698 153.621Z" fill="white"/>
<path d="M276.335 150.979H266.12V161.364H276.335V150.979Z" fill="white"/>
<path d="M261.332 156.91C261.103 158.36 261.128 159.862 261.205 161.364H264.949V150.979H254.734V152.895C255.6 152.947 256.441 152.947 257.307 152.895C260.364 152.688 261.867 153.413 261.332 156.91Z" fill="white"/>
<path d="M249.46 152.455C249.46 152.455 249.46 152.481 249.46 152.507C250.835 152.585 252.211 152.74 253.586 152.844V150.979H248.976C249.103 151.471 249.256 151.963 249.383 152.429C249.383 152.429 249.434 152.429 249.46 152.429V152.455Z" fill="white"/>
<path d="M249.409 152.508V152.456C247.397 152.508 245.385 152.586 243.372 152.611V161.365H248.976C249.104 158.412 249.282 155.46 249.46 152.508C249.46 152.508 249.435 152.508 249.409 152.508Z" fill="white"/>
<path d="M236.087 150.979H231.985V161.364H242.2V152.611C240.647 152.611 239.067 152.662 237.513 152.611C237.08 152.611 236.418 151.756 236.087 150.979Z" fill="white"/>
<path d="M219.451 152.767C217.591 152.612 215.706 152.741 213.821 152.586C211.222 152.379 210.28 153.363 210.407 156.108C210.484 157.869 210.484 159.63 210.509 161.391H219.451V152.767Z" fill="white"/>
<path d="M459.495 149.66C460.565 146.293 461.584 142.926 462.628 139.56H459.495V149.66Z" fill="white"/>
<path d="M458.322 139.532H448.106V149.917H458.322V139.532Z" fill="white"/>
<path d="M446.961 139.532H436.746V149.917H446.961V139.532Z" fill="white"/>
<path d="M435.573 139.532H425.357V149.917H435.573V139.532Z" fill="white"/>
<path d="M424.214 139.532H413.999V149.917H424.214V139.532Z" fill="white"/>
<path d="M412.825 139.532H402.61V149.917H412.825V139.532Z" fill="white"/>
<path d="M396.727 140.621C394.893 140.621 392.983 140.854 391.225 140.518V149.944H401.44V139.56H401.033C400.65 140.466 399.377 140.647 396.727 140.647V140.621Z" fill="white"/>
<path d="M379.861 139.532V149.917H390.076V139.92C389.924 139.791 389.771 139.687 389.643 139.532H379.861Z" fill="white"/>
<path d="M378.69 139.532H368.475V149.917H378.69V139.532Z" fill="white"/>
<path d="M367.331 139.532H357.116V149.917H367.331V139.532Z" fill="white"/>
<path d="M355.967 149.917V139.532H350.159C350.159 139.894 350.159 140.257 350.159 140.619C348.554 140.619 347.128 140.619 345.752 140.619V149.917H355.967Z" fill="white"/>
<path d="M334.367 149.917H344.582V140.619C344.2 140.619 343.792 140.619 343.41 140.619C339.563 140.594 338.341 140.904 337.959 139.532H334.367V149.917Z" fill="white"/>
<path d="M322.978 140.723C323.513 140.723 324.022 140.723 324.583 140.723C324.583 144.323 324.685 147.146 324.532 149.917H333.219V139.532H323.003V140.723H322.978Z" fill="white"/>
<path d="M312.255 142.641C312.331 141.942 313.478 140.854 314.165 140.829C316.662 140.699 319.209 140.699 321.859 140.725V139.56H311.644V149.944H312C311.695 148.391 311.873 146.06 312.28 142.667L312.255 142.641Z" fill="white"/>
<path d="M310.444 139.532H300.229V149.917H310.444V139.532Z" fill="white"/>
<path d="M299.084 139.532H288.869V149.917H299.084V139.532Z" fill="white"/>
<path d="M287.698 149.917V139.532H286.374C286.043 140.309 285.355 140.697 284.081 140.645C281.89 140.568 279.674 140.568 277.483 140.645V149.917H287.698Z" fill="white"/>
<path d="M266.12 149.917H276.335V140.645C275.086 140.645 274.424 140.283 274.093 139.532H266.12V149.917Z" fill="white"/>
<path d="M264.949 149.917V139.532H261.434C261.434 139.894 261.434 140.257 261.434 140.619C259.167 140.619 256.951 140.594 254.734 140.619V149.917H264.949Z" fill="white"/>
<path d="M243.372 140.723C243.958 140.723 244.544 140.723 245.155 140.723H248.569C248.569 143.727 248.492 146.369 248.594 149.01C248.594 149.321 248.645 149.632 248.722 149.917H253.587V140.645C252.925 140.645 252.237 140.645 251.575 140.671C250.097 140.749 249.333 140.36 249.002 139.532H243.372V140.723Z" fill="white"/>
<path d="M235.6 140.647C235.6 140.647 235.6 140.699 235.6 140.751C237.766 140.751 239.982 140.751 242.224 140.751V139.56H235.499V140.647H235.6Z" fill="white"/>
<path d="M235.858 149.918C235.629 146.862 235.655 143.781 235.604 140.725H235.502V140.621C234.33 140.621 233.158 140.621 232.012 140.621V149.918H235.884H235.858Z" fill="white"/>
<path d="M230.838 140.647C228.29 140.647 225.743 140.647 223.094 140.647C223.094 143.988 222.992 146.966 223.119 149.945H230.838V140.647Z" fill="white"/>
<path d="M459.495 138.499H462.96C463.851 135.625 464.743 132.776 465.634 129.901C465.813 129.306 465.965 128.71 466.144 128.114H459.495V138.499Z" fill="white"/>
<path d="M458.322 128.114H448.106V138.499H458.322V128.114Z" fill="white"/>
<path d="M446.961 128.114H436.746V138.499H446.961V128.114Z" fill="white"/>
<path d="M435.573 128.114H425.357V138.499H435.573V128.114Z" fill="white"/>
<path d="M424.214 128.114H413.999V138.499H424.214V128.114Z" fill="white"/>
<path d="M412.825 128.114H402.61V138.499H412.825V128.114Z" fill="white"/>
<path d="M391.225 135.262C394.155 134.977 397.135 135.158 400.345 135.158C400.829 136.66 401.084 137.696 401.16 138.499H401.44V128.114H391.225V135.288V135.262Z" fill="white"/>
<path d="M390.076 135.779V128.088H379.861V138.473H388.956C388.879 138.291 388.803 138.11 388.803 137.981C388.803 137.333 389.44 136.375 390.076 135.779Z" fill="white"/>
<path d="M378.69 128.114H368.475V138.499H378.69V128.114Z" fill="white"/>
<path d="M367.331 128.114H357.116V138.499H367.331V128.114Z" fill="white"/>
<path d="M355.968 128.114H350.16C350.16 131.533 350.16 134.951 350.16 138.499H355.968V128.114Z" fill="white"/>
<path d="M334.367 138.499H337.806C337.755 137.67 337.78 136.556 337.755 134.977C337.704 130.522 338.137 128.761 337.143 128.088H334.367V138.473V138.499Z" fill="white"/>
<path d="M321.833 128.114H311.618V138.499H321.833V128.114Z" fill="white"/>
<path d="M310.444 128.114H300.229V138.499H310.444V128.114Z" fill="white"/>
<path d="M299.084 128.114H288.869V138.499H299.084V128.114Z" fill="white"/>
<path d="M287.698 128.14C287.036 128.58 286.679 129.306 286.679 130.574C286.705 133.035 286.552 135.521 286.628 137.981C286.628 138.188 286.603 138.318 286.577 138.499H287.673V128.14H287.698Z" fill="white"/>
<path d="M266.12 138.499H273.864C273.864 138.266 273.813 138.059 273.838 137.774C273.991 135.314 273.838 132.828 273.966 130.367C274.017 129.202 273.736 128.503 273.1 128.114H266.12V138.499Z" fill="white"/>
<path d="M264.951 128.114H262.123C261.613 128.503 261.384 129.176 261.41 130.212C261.435 132.879 261.41 135.573 261.41 138.499H264.925V128.114H264.951Z" fill="white"/>
<path d="M243.372 138.499H248.798C248.798 138.24 248.798 137.955 248.798 137.644C248.925 134.485 248.824 131.325 248.824 128.088H243.398V138.473L243.372 138.499Z" fill="white"/>
<path d="M242.201 128.114H235.476V138.499H242.201V128.114Z" fill="white"/>
<path d="M459.495 127.052H466.45C467.443 123.608 468.36 120.163 469.099 116.667H459.495V127.052Z" fill="white"/>
<path d="M458.322 116.667H451.75C451.75 118.868 451.801 121.044 451.877 123.245C451.954 125.291 451.979 126.404 451.597 127.052H458.322V116.667Z" fill="white"/>
<path d="M400.903 127.051C400.775 126.352 400.648 125.705 400.724 125.109C401.03 122.571 400.113 121.587 397.54 121.846C395.451 122.053 393.337 122.001 391.248 121.846V127.025H400.928L400.903 127.051Z" fill="white"/>
<path d="M390.077 121.871C388.549 122.026 387.759 122.829 388.065 124.901C388.218 125.963 388.039 126.61 387.632 127.051H390.077V121.871Z" fill="white"/>
<path d="M364.172 127.052C363.026 126.12 362.975 124.152 362.949 119.957C362.949 119.853 362.949 119.749 362.949 119.646C363.153 117.807 362.287 117.186 360.529 117.237C359.383 117.263 358.237 117.289 357.116 117.289V127.052H364.172Z" fill="white"/>
<path d="M355.966 117.236C355.049 117.236 354.158 117.184 353.241 117.132C350.948 116.977 349.929 117.754 350.107 120.24C350.26 122.493 350.184 124.772 350.158 127.025H355.941V117.236H355.966Z" fill="white"/>
<path d="M325.017 127.051C324.533 126.3 324.686 124.85 324.66 121.975C324.609 118.661 324.584 117.702 323.004 117.392V127.051H325.042H325.017Z" fill="white"/>
<path d="M321.833 127.051V117.262C321.349 117.262 320.788 117.21 320.126 117.21C312.331 117.081 312.255 117.081 312.076 124.876C312.076 125.808 311.923 126.481 311.618 126.973V127.051H321.833Z" fill="white"/>
<path d="M469.328 115.604C469.379 115.397 469.43 115.19 469.481 114.983C470.474 109.959 468.182 107.084 463.163 106.747C461.941 106.67 460.718 106.67 459.495 106.696V115.604H469.328Z" fill="white"/>
<path d="M458.323 106.747C456.871 106.825 455.419 106.954 453.967 107.11C453.178 107.187 451.878 108.379 451.853 109.104C451.776 111.279 451.751 113.429 451.751 115.604H458.323V106.747Z" fill="white"/>
<path d="M210.716 173.874C210.716 174.495 210.716 175.117 210.741 175.712C210.792 177.551 210.41 178.768 209.238 179.286V184.258H212.957C212.957 184.258 215.097 182.083 219.453 180.167V173.874H210.716Z" fill="white"/>
</svg>
