<svg width="259" height="57" viewBox="0 0 259 57" fill="none" xmlns="http://www.w3.org/2000/svg">
<rect x="239.055" y="23.0618" width="2.09651" height="2.09651" fill="white"/>
<rect x="237.346" y="8.10693" width="2.09651" height="2.09651" transform="rotate(18.534 237.346 8.10693)" fill="white"/>
<rect x="239.055" y="12.5793" width="4.19302" height="4.19302" fill="white"/>
<rect x="250.559" y="14.0093" width="4.19302" height="4.19302" transform="rotate(23.7407 250.559 14.0093)" fill="white"/>
<rect x="244.936" y="4.19312" width="4.19302" height="4.19302" transform="rotate(23.7407 244.936 4.19312)" fill="white"/>
<rect x="249.77" y="4.26855" width="2.43837" height="2.43837" transform="rotate(-7.84708 249.77 4.26855)" fill="white"/>
<rect x="255.827" y="0.277588" width="2.03328" height="2.03328" transform="rotate(-7.84708 255.827 0.277588)" fill="white"/>
<g clip-path="url(#clip0_23_1225)">
<path d="M4.28307 10.4829V48.2201H0.0526123V10.4829H4.28307ZM25.4354 48.2201V52.4132H4.28307V48.2201H25.4354Z" fill="white"/>
<path d="M38.1268 14.676V23.0621H33.8963V14.676H38.1268ZM38.1268 31.4481V52.4132H33.8963V31.4481H38.1268Z" fill="white"/>
<path d="M67.74 27.2551V31.4482H50.8182V52.4133H46.5877V27.2551H67.74ZM71.9705 31.4482V52.4133H67.74V31.4482H71.9705Z" fill="white"/>
<path d="M84.6619 14.676V35.6412H88.8923V44.0272H84.6619V52.4132H80.4314V14.676H84.6619ZM93.1228 31.4481V35.6412H88.8923V31.4481H93.1228ZM93.1228 44.0272V48.2202H88.8923V44.0272H93.1228ZM101.584 27.2551V31.4481H93.1228V27.2551H101.584ZM101.584 48.2202V52.4132H93.1228V48.2202H101.584Z" fill="white"/>
<path d="M114.275 27.2551V44.0272H110.045V27.2551H114.275ZM131.197 44.0272V27.2551H135.427V56.6063H131.197V48.2202H114.275V44.0272H131.197Z" fill="white"/>
<path d="M186.193 27.2551V31.4482H169.271V44.0272H186.193V48.2202H169.271V56.6063H165.041V27.2551H186.193ZM190.423 31.4482V44.0272H186.193V31.4482H190.423Z" fill="white"/>
<path d="M203.115 14.676V23.0621H198.884V14.676H203.115ZM203.115 31.4481V52.4132H198.884V31.4481H203.115Z" fill="white"/>
<path d="M215.806 31.4482V39.8342H232.728V44.0272H215.806V48.2202H211.576V31.4482H215.806ZM232.728 27.2551V31.4482H215.806V27.2551H232.728ZM236.959 48.2202V52.4133H215.806V48.2202H236.959ZM236.959 31.4482V39.8342H232.728V31.4482H236.959Z" fill="white"/>
<rect x="232.765" y="20.1348" width="4.19302" height="4.19302" fill="white"/>
</g>
<defs>
<clipPath id="clip0_23_1225">
<rect width="236.906" height="46.1233" fill="white" transform="translate(0.0526123 10.4829)"/>
</clipPath>
</defs>
</svg>
