<svg width="142" height="32" viewBox="0 0 142 32" fill="none" xmlns="http://www.w3.org/2000/svg">
<rect x="131.51" y="12.6895" width="1.1536" height="1.1536" fill="black"/>
<rect x="130.57" y="4.46143" width="1.1536" height="1.1536" transform="rotate(18.534 130.57 4.46143)" fill="black"/>
<rect x="131.51" y="6.92188" width="2.3072" height="2.3072" fill="black"/>
<rect x="137.84" y="7.7085" width="2.3072" height="2.3072" transform="rotate(23.7407 137.84 7.7085)" fill="black"/>
<rect x="134.746" y="2.30762" width="2.3072" height="2.3072" transform="rotate(23.7407 134.746 2.30762)" fill="black"/>
<rect x="137.406" y="2.34912" width="1.3417" height="1.3417" transform="rotate(-7.84708 137.406 2.34912)" fill="black"/>
<rect x="140.739" y="0.152832" width="1.1188" height="1.1188" transform="rotate(-7.84708 140.739 0.152832)" fill="black"/>
<g clip-path="url(#clip0_90_541)">
<path d="M2.3278 5.76807V26.5328H0V5.76807H2.3278ZM13.9668 26.5328V28.84H2.3278V26.5328H13.9668Z" fill="black"/>
<path d="M20.9501 8.0752V12.6896H18.6223V8.0752H20.9501ZM20.9501 17.304V28.84H18.6223V17.304H20.9501Z" fill="black"/>
<path d="M37.2447 14.9971V17.3043H27.9335V28.8402H25.6057V14.9971H37.2447ZM39.5725 17.3043V28.8402H37.2447V17.3043H39.5725Z" fill="black"/>
<path d="M46.5558 8.0752V19.6112H48.8836V24.2256H46.5558V28.84H44.228V8.0752H46.5558ZM51.2114 17.304V19.6112H48.8836V17.304H51.2114ZM51.2114 24.2256V26.5328H48.8836V24.2256H51.2114ZM55.867 14.9968V17.304H51.2114V14.9968H55.867ZM55.867 26.5328V28.84H51.2114V26.5328H55.867Z" fill="black"/>
<path d="M62.8505 14.9971V24.2259H60.5227V14.9971H62.8505ZM72.1617 24.2259V14.9971H74.4895V31.1474H72.1617V26.533H62.8505V24.2259H72.1617Z" fill="black"/>
<path d="M102.423 14.9971V17.3043H93.1117V24.2259H102.423V26.533H93.1117V31.1474H90.7839V14.9971H102.423ZM104.751 17.3043V24.2259H102.423V17.3043H104.751Z" fill="black"/>
<path d="M111.734 8.0752V12.6896H109.406V8.0752H111.734ZM111.734 17.304V28.84H109.406V17.304H111.734Z" fill="black"/>
<path d="M118.717 17.3043V21.9187H128.029V24.2259H118.717V26.533H116.39V17.3043H118.717ZM128.029 14.9971V17.3043H118.717V14.9971H128.029ZM130.356 26.533V28.8402H118.717V26.533H130.356ZM130.356 17.3043V21.9187H128.029V17.3043H130.356Z" fill="black"/>
<rect x="128.049" y="11.0791" width="2.3072" height="2.3072" fill="black"/>
</g>
<defs>
<clipPath id="clip0_90_541">
<rect width="130.357" height="25.3791" fill="white" transform="translate(0 5.76807)"/>
</clipPath>
</defs>
</svg>
