<svg width="761" height="761" viewBox="0 0 761 761" fill="none" xmlns="http://www.w3.org/2000/svg">
<rect width="761" height="761" rx="70" fill="black"/>
<path d="M293.758 393.57C296.356 394.942 298.776 396.237 301.17 397.506C303.582 398.784 304.168 400.657 302.928 403.126C302.928 403.126 302.826 403.307 302.775 403.411C301.298 405.69 299.846 407.943 298.368 410.222C295.082 408.875 291.771 407.632 288.535 406.13C288.026 405.897 287.567 404.369 287.822 403.773C289.121 400.743 290.599 397.791 292.153 394.891C292.458 394.321 293.223 393.984 293.732 393.57H293.758Z" fill="white"/>
<path d="M317.118 474.913C318.595 473.878 320.302 472.66 322.009 471.469C323.741 470.278 325.448 469.061 327.689 467.533C329.727 470.33 331.944 473.023 333.727 475.949C334.975 478.021 332.835 480.974 328.708 483.33C325.346 485.272 323.843 485.143 322.162 482.657C320.506 480.197 318.952 477.685 317.118 474.862V474.913Z" fill="white"/>
<path d="M160.378 256.079C157.271 254.474 154.57 253.075 151.845 251.703C149.756 250.641 149.272 249.216 150.367 246.989C154.621 238.469 154.57 238.443 163.13 242.405C165.558 243.528 166.11 245.297 164.785 247.714C163.282 250.485 161.83 253.282 160.353 256.079H160.378Z" fill="white"/>
<path d="M221.057 340.688C223.91 342.553 226.712 344.444 229.59 346.205C231.272 347.215 231.399 348.38 230.406 349.908C229.59 351.151 228.801 352.42 228.011 353.689C224.929 358.61 224.547 358.713 219.579 355.864C219.044 355.554 218.509 355.191 218.025 354.803C213.542 351.255 213.567 351.255 216.955 346.645C218.331 344.78 219.605 342.812 221.057 340.714V340.688Z" fill="white"/>
<path d="M331.587 463.986C329.753 461.422 327.638 458.781 325.957 455.906C325.473 455.052 325.779 452.85 326.492 452.281C328.887 450.442 331.638 449.043 334.287 447.567C334.618 447.386 335.484 447.515 335.714 447.826C337.803 450.494 339.968 453.109 341.675 456.01C342.006 456.554 340.63 458.677 339.586 459.402C337.268 461.034 334.669 462.251 331.587 463.986Z" fill="white"/>
<path d="M302.317 323.465C302.317 327.427 302.445 330.846 302.215 334.264C302.164 335.015 300.967 336.258 300.279 336.284C297.248 336.414 294.191 336.181 291.134 336.077C289.504 336.025 288.663 335.507 288.867 333.539C289.122 331.105 288.994 328.619 288.918 326.184C288.842 324.32 289.478 323.413 291.414 323.465C294.853 323.543 298.318 323.465 302.317 323.465Z" fill="white"/>
<path d="M546.843 254.759C549.747 256.753 552.753 258.67 555.529 260.871C556.09 261.311 556.217 262.943 555.911 263.798C555.478 265.066 554.434 266.128 553.695 267.294C550.333 272.654 549.314 272.888 544.397 269.469C540.245 266.569 539.863 262.71 543.327 258.67C544.423 257.401 545.544 256.158 546.817 254.733L546.843 254.759Z" fill="white"/>
<path d="M424.57 259.111C426.149 262.4 427.525 265.404 428.977 268.357C429.945 270.325 429.384 271.646 427.474 272.474C426.404 272.941 425.359 273.484 424.238 273.795C422.099 274.443 418.379 275.919 418.023 275.349C416.189 272.319 415.17 268.771 413.947 265.353C413.845 265.068 414.329 264.317 414.686 264.135C417.844 262.452 421.054 260.846 424.519 259.085L424.57 259.111Z" fill="white"/>
<path d="M320.352 512.516C317.38 512.257 315.724 510.522 315.385 507.311C315.104 504.669 314.824 502.028 314.519 499.101C318.696 498.532 322.492 497.988 326.644 497.418C327.154 501.121 327.816 504.592 328.02 508.062C328.071 508.865 326.797 510.082 325.854 510.548C324.097 511.428 322.135 511.921 320.25 512.568L320.352 512.49V512.516Z" fill="white"/>
<path d="M278.118 491.36C278.474 491.593 278.882 491.748 279.137 492.059C281.226 494.468 283.315 496.85 285.302 499.362C285.684 499.828 285.887 501.046 285.582 501.356C283.365 503.765 281.047 506.07 278.653 508.271C278.271 508.608 276.971 508.582 276.64 508.219C274.271 505.681 272.004 503.066 269.839 500.372C269.584 500.061 269.966 498.896 270.399 498.456C272.514 496.229 274.73 494.105 276.946 491.981C277.226 491.697 277.685 491.593 278.143 491.386L278.118 491.36Z" fill="white"/>
<path d="M189.29 429.956C186.36 426.926 183.813 424.595 181.647 421.928C181.011 421.151 181.495 419.468 181.469 418.199C181.469 418.095 181.571 418.017 181.622 417.914C183.252 415.738 184.908 413.589 186.538 411.414C189.621 413.408 192.729 415.35 195.709 417.499C196.142 417.81 196.244 419.364 195.887 419.96C193.951 423.119 191.837 426.149 189.29 429.982V429.956Z" fill="white"/>
<path d="M414.864 188.15C417.742 185.534 420.595 182.893 423.882 179.889C426.556 182.582 428.976 184.913 431.244 187.373C431.753 187.943 432.161 189.419 431.804 189.833C429.741 192.371 427.55 194.832 425.206 197.11C424.799 197.525 423.194 197.292 422.608 196.8C419.984 194.676 417.539 192.319 415.017 190.066L414.864 188.15Z" fill="white"/>
<path d="M145.524 167.486C147.664 171.19 149.702 174.738 152.147 178.959C148.989 180.642 145.983 182.455 142.773 183.854C141.958 184.19 140.175 183.465 139.512 182.662C137.984 180.772 136.787 178.622 135.691 176.447C135.334 175.722 135.309 174.09 135.768 173.779C138.85 171.604 142.111 169.662 145.524 167.512V167.486Z" fill="white"/>
<path d="M334.364 303.576C328.658 303.628 328.531 303.628 328.48 297.827C328.403 289.98 326.671 290.912 335.128 290.835C341.166 290.783 341.166 290.835 341.115 296.92C341.081 301.323 338.831 303.542 334.364 303.576Z" fill="white"/>
<path d="M325.675 266.413C322.007 266.025 319.281 265.688 316.556 265.481C314.569 265.325 314.085 264.238 314.39 262.451C314.696 260.664 314.925 258.877 315.231 257.09C315.808 253.758 317.702 252.334 320.912 252.817C322.873 253.128 324.86 253.464 326.822 253.775C328.427 254.034 328.809 254.863 328.427 256.494C327.841 259.084 327.611 261.752 327 264.341C326.796 265.248 325.956 265.999 325.675 266.413Z" fill="white"/>
<path d="M300.253 211.716C300.304 207.4 302.393 205.311 306.52 205.449C313.22 205.656 313.271 205.656 313.067 212.674C312.863 219.459 313.755 218.398 307.31 218.475C307.106 218.475 306.877 218.475 306.673 218.475C302.359 218.423 300.228 216.179 300.279 211.742L300.253 211.716Z" fill="white"/>
<path d="M304.611 565.762H292.052C292.052 562.085 291.925 558.459 292.154 554.859C292.205 554.108 293.555 552.917 294.37 552.891C297.198 552.736 300.102 552.813 302.904 553.202C303.719 553.305 304.942 554.678 304.967 555.507C305.069 558.796 304.763 562.11 304.611 565.762Z" fill="white"/>
<path d="M374.053 276.773C373.67 276.178 372.83 275.453 372.651 274.572C372.142 271.956 371.938 269.289 371.48 266.647C371.199 265.068 371.607 264.265 373.288 264.032C376.218 263.669 379.096 262.996 382.026 262.763C382.79 262.711 384.191 263.617 384.344 264.317C384.981 267.114 385.363 269.988 385.567 272.863C385.618 273.588 384.777 274.909 384.14 275.064C381.058 275.763 377.925 276.152 374.053 276.748V276.773Z" fill="white"/>
<path d="M260.796 519.045C261.942 519.174 263.088 519.355 264.235 519.459C268.124 519.822 269.907 522.023 269.584 526.063C269.211 530.828 266.748 532.943 262.197 532.408C258.579 531.976 256.856 529.956 257.026 526.348C257.102 524.949 257.408 523.577 257.331 522.204C257.204 519.588 258.401 518.708 260.796 519.071V519.045Z" fill="white"/>
<path d="M333.625 271.23C337.396 270.893 340.937 270.453 344.477 270.35C345.165 270.35 346.312 271.567 346.49 272.396C347.05 274.882 347.381 277.446 347.458 280.009C347.458 280.76 346.49 282.055 345.751 282.237C342.796 282.91 339.765 283.376 336.733 283.635C336.02 283.687 334.644 282.677 334.568 282.029C334.084 278.663 333.931 275.244 333.625 271.256V271.23Z" fill="white"/>
<path d="M396.29 264.987C400.009 263.874 403.296 262.786 406.633 261.983C407.295 261.828 408.773 262.579 408.951 263.2C409.97 266.748 410.734 270.374 411.626 274.207C407.906 275.035 404.569 275.838 401.181 276.46C400.544 276.589 399.271 276.123 399.118 275.657C398.048 272.135 397.182 268.561 396.239 265.013L396.29 264.987Z" fill="white"/>
<path d="M313.094 311.994C306.522 311.994 306.496 311.994 306.547 305.494C306.598 298.346 305.452 299.227 312.737 299.253C319.717 299.253 319.157 297.777 319.182 305.96C319.182 311.994 319.182 311.994 313.094 311.994Z" fill="white"/>
<path d="M259.904 272.24C262.91 270.349 265.661 268.329 268.693 266.957C269.584 266.542 271.546 267.682 272.565 268.614C273.584 269.572 274.017 271.178 274.756 272.473C277.125 276.642 276.743 277.937 272.285 280.113C270.782 280.864 269.151 281.433 267.547 281.9C266.986 282.055 265.916 281.9 265.636 281.459C263.725 278.559 261.968 275.581 259.904 272.214V272.24Z" fill="white"/>
<path d="M400.061 222.802C403.475 223.45 406.2 223.786 408.799 224.563C409.537 224.796 410.404 226.376 410.302 227.257C410.047 229.898 409.512 232.54 408.773 235.078C408.569 235.829 407.296 236.839 406.582 236.787C403.653 236.554 400.749 236.088 397.896 235.388C397.183 235.207 396.189 233.809 396.291 233.109C396.673 230.157 397.284 227.231 398.1 224.356C398.329 223.579 399.603 223.113 400.036 222.802H400.061Z" fill="white"/>
<path d="M272.41 310.493C272.41 306.764 272.359 303.449 272.461 300.16C272.461 299.59 273.098 298.632 273.557 298.554C277.174 298.036 280.817 297.674 284.943 297.208C284.943 301.455 285.045 305.08 284.842 308.68C284.816 309.328 283.593 310.363 282.855 310.415C279.594 310.597 276.333 310.493 272.385 310.493H272.41Z" fill="white"/>
<path d="M298.242 283.323C299.006 281.148 299.49 279.516 300.178 277.988C302.445 272.783 309.247 271.281 313.399 275.062C313.832 275.476 313.908 276.616 313.73 277.315C313.119 279.568 312.252 281.77 311.59 284.023C310.418 287.985 310.342 288.14 306.393 286.768C303.744 285.835 301.197 284.566 298.267 283.323H298.242Z" fill="white"/>
<path d="M558.69 277.292V264.783C562.18 264.783 565.542 264.861 568.905 264.758C570.663 264.706 571.452 265.276 571.351 267.14C571.249 268.953 571.351 270.792 571.402 272.605C571.452 277.447 572.497 277.344 566.638 277.266C564.116 277.266 561.594 277.266 558.715 277.266L558.69 277.292Z" fill="white"/>
<path d="M329.423 316.576C329.525 318.803 329.652 320.694 329.703 322.584C329.754 324.475 329.703 326.391 329.703 328.67C325.831 328.67 322.061 328.748 318.316 328.566C317.832 328.566 317.119 327.116 317.043 326.313C316.89 323.983 317.196 321.6 316.941 319.269C316.712 317.223 317.399 316.498 319.285 316.524C322.545 316.55 325.78 316.524 329.372 316.524L329.423 316.576Z" fill="white"/>
<path d="M301.63 519.692C296.79 519.174 293.911 516.273 292.765 512.907C292.026 510.731 293.937 507.546 294.905 504.93C295.032 504.62 296.637 504.62 297.478 504.853C300.229 505.63 302.955 506.458 305.579 507.52C306.164 507.753 306.852 509.203 306.648 509.799C305.706 512.622 304.534 515.393 303.26 518.112C302.904 518.889 301.961 519.381 301.63 519.718V519.692Z" fill="white"/>
<path d="M348.22 428.533C344.374 427.652 341.011 426.875 337.623 426.15C335.611 425.736 335.203 424.777 336.247 422.991C337.521 420.789 338.566 418.433 339.941 416.283C340.425 415.532 341.521 414.833 342.387 414.729C349.621 413.952 350.64 415.118 349.341 422.214C348.959 424.26 348.602 426.305 348.22 428.533Z" fill="white"/>
<path d="M444.974 247.948C447.317 250.589 449.483 253.05 451.673 255.484C452.871 256.805 452.82 257.892 451.622 259.369C446.451 265.636 446.502 265.662 440.847 259.809C439.599 258.54 438.172 257.452 436.44 255.95C439.115 253.438 441.713 251.03 444.974 247.974V247.948Z" fill="white"/>
<path d="M198.152 207.961C201.133 209.256 203.782 210.292 206.304 211.587C206.89 211.898 207.298 213.063 207.298 213.866C207.298 214.772 206.814 215.705 206.457 216.611C202.763 225.934 204.062 224.536 195.503 221.247C193.949 220.651 193.312 219.797 194.026 218.087C195.401 214.876 196.675 211.613 198.152 207.987V207.961Z" fill="white"/>
<path d="M263.419 166.526C263.088 166.137 262.273 165.619 262.069 164.894C261.203 161.916 260.362 158.938 259.853 155.882C259.751 155.183 260.923 154.069 261.738 153.499C262.349 153.059 263.368 153.266 264.183 153.033C269.1 151.609 269.176 151.583 270.858 156.426C274.042 165.723 273.966 163.962 265.534 166.137C265.024 166.267 264.489 166.344 263.419 166.526Z" fill="white"/>
<path d="M491.031 248.441C488.127 247.716 485.631 247.198 483.262 246.395C482.752 246.214 482.217 244.867 482.345 244.194C482.88 241.371 483.542 238.548 484.485 235.855C484.765 235.052 486.14 234.379 487.134 234.146C487.974 233.939 488.943 234.508 489.885 234.664C493.876 235.354 495.328 237.651 494.241 241.553C493.783 243.184 493.451 244.893 492.815 246.447C492.483 247.25 491.617 247.82 491.057 248.415L491.031 248.441Z" fill="white"/>
<path d="M462.831 279.594C459.544 277.807 456.895 276.305 454.169 274.906C452.335 273.974 451.877 272.86 452.768 270.814C456.105 263.175 456.437 263.019 463.264 267.551C464.053 268.069 465.047 268.406 465.633 269.105C466.219 269.83 466.906 271.125 466.652 271.798C465.607 274.44 464.206 276.926 462.831 279.619V279.594Z" fill="white"/>
<path d="M263.188 368.527C260.335 369.874 257.711 371.273 254.986 372.283C254.323 372.516 252.693 371.739 252.438 371.065C251.394 368.268 250.604 365.368 249.993 362.442C249.814 361.613 250.349 360.344 250.961 359.748C251.852 358.894 253.075 358.35 254.221 357.832C257.992 356.097 258.399 356.33 259.851 360.163C260.896 362.934 262.042 365.679 263.163 368.527H263.188Z" fill="white"/>
<path d="M506.925 266.749C504.709 269.132 502.442 271.54 500.251 274C499.028 275.347 497.984 275.658 496.583 274.104C495.233 272.602 493.424 271.514 492.201 269.96C491.666 269.287 491.564 267.371 492.074 266.879C494.672 264.392 497.525 262.191 500.226 259.938C501.856 261.595 504.25 264.03 506.951 266.775L506.925 266.749Z" fill="white"/>
<path d="M520.552 264.29C517.979 262.814 515.355 261.26 512.68 259.784C510.693 258.671 510.184 257.35 511.152 255.071C513.776 248.907 513.674 248.855 519.788 251.549C523.931 253.379 524.993 256.374 522.972 260.535C522.411 261.675 521.8 262.788 521.189 263.902C521.112 264.057 520.832 264.109 520.552 264.264V264.29Z" fill="white"/>
<path d="M375.198 250.951C377.057 247.947 378.739 244.969 380.7 242.224C381.159 241.577 382.84 241.11 383.477 241.473C385.948 242.82 388.215 244.529 390.839 246.264C388.215 250.149 385.922 253.567 383.528 257.115C380.878 255.147 378.28 253.23 375.198 250.951Z" fill="white"/>
<path d="M132.048 304.975C130.596 304.664 129.857 304.509 129.144 304.354C119.897 302.256 120.992 303.007 123.591 294.616C123.845 293.787 125.297 292.7 126.062 292.777C128.889 293.088 131.691 293.71 134.392 294.564C135.105 294.797 135.946 296.429 135.818 297.284C135.538 299.381 134.876 301.479 134.035 303.421C133.678 304.25 132.456 304.664 132.023 305.001L132.048 304.975Z" fill="white"/>
<path d="M532.832 225.004C533.113 228.241 533.495 231.09 533.52 233.964C533.52 234.638 532.45 235.803 531.763 235.907C528.757 236.425 525.7 236.632 522.643 236.917C522.337 236.943 521.751 236.969 521.726 236.917C521.191 234.56 520.554 232.229 520.274 229.847C520.146 228.914 520.656 227.102 521.14 226.972C524.91 226.143 528.731 225.651 532.807 225.004H532.832Z" fill="white"/>
<path d="M361.291 215.11C363.889 214.126 364.348 215.912 364.526 218.813C364.908 225.572 365.035 225.572 358.285 226.349C354.532 226.781 352.46 225.184 352.069 221.558C351.679 217.932 353.139 215.99 356.451 215.731C357.801 215.524 359.176 215.369 361.316 215.084L361.291 215.11Z" fill="white"/>
<path d="M340.987 382.356C345.368 382.356 349.164 382.123 352.909 382.408C356.781 382.693 355.533 386.733 356.806 388.934C356.883 389.063 355.023 390.695 353.877 391.135C352.017 391.86 349.903 391.938 348.12 392.767C345.929 393.803 344.782 393.233 344.044 391.083C343.076 388.286 342.108 385.489 340.987 382.304V382.356Z" fill="white"/>
<path d="M357.725 355.968C361.215 352.834 364.323 350.063 367.354 347.344C373.85 351.798 373.646 351.669 370.284 358.272C367.813 363.167 367.94 364.721 361.954 359.723C360.68 358.661 359.457 357.496 357.725 355.968Z" fill="white"/>
<path d="M347.329 181.908C343.356 183.332 339.636 184.679 335.892 185.922C335.56 186.026 334.975 185.585 334.643 185.249C334.389 184.964 334.312 184.472 334.236 184.057C333.624 181.52 333.039 178.956 332.453 176.418C335.764 175.123 339.05 173.75 342.413 172.611C342.897 172.455 344.145 173.31 344.425 173.957C345.521 176.47 346.336 179.111 347.355 181.882L347.329 181.908Z" fill="white"/>
<path d="M459.901 244.479C462.703 246.576 465.377 248.493 467.899 250.564C468.485 251.056 469.046 252.455 468.766 252.947C467.594 255.071 466.244 257.168 464.613 258.981C464.155 259.499 462.321 259.37 461.582 258.852C458.754 256.858 456.105 254.579 453.303 252.325C455.519 249.684 457.531 247.301 459.901 244.479Z" fill="white"/>
<path d="M267.674 196.982C269.177 200.064 270.501 202.395 271.444 204.881C271.75 205.709 271.444 207.574 270.858 207.859C267.725 209.361 264.464 210.526 261.203 211.769C260.898 211.899 260.133 211.692 260.082 211.51C259.446 209.076 257.637 205.709 258.605 204.389C260.643 201.54 264.133 199.727 267.674 196.982Z" fill="white"/>
<path d="M253.179 417.264C251.013 413.949 249.128 411.075 247.065 407.889C251.09 406.879 254.987 405.455 258.961 405.144C260.311 405.041 262.095 407.604 263.215 409.262C263.547 409.728 262.553 411.722 261.687 412.292C259.114 414.053 256.287 415.477 253.153 417.264H253.179Z" fill="white"/>
<path d="M234.202 261.001C230.075 259.706 226.483 258.592 222.178 257.246C225.745 253.983 228.827 250.849 232.266 248.233C233.183 247.534 235.45 247.974 236.647 248.648C237.284 249.01 237.31 251.16 237.004 252.351C236.24 255.303 235.145 258.152 234.177 261.001H234.202Z" fill="white"/>
<path d="M299.514 372.334C293.426 372.956 288.535 366.714 289.503 359.903H299.514V372.334Z" fill="white"/>
<path d="M296.536 475.407C298.497 471.134 300.28 466.964 302.369 462.95C302.751 462.225 304.458 461.681 305.324 461.914C306.088 462.121 306.776 463.442 307.107 464.426C307.413 465.281 307.209 466.342 307.235 467.301C307.286 476.857 306.929 477.142 296.536 475.433V475.407Z" fill="white"/>
<path d="M315.029 358.557C312.94 363.063 311.335 366.844 309.348 370.444C308.889 371.299 307.055 371.868 305.985 371.713C305.247 371.584 304.33 370.004 304.253 368.994C303.998 366.249 303.998 363.452 304.177 360.681C304.228 359.956 305.221 358.713 305.858 358.661C308.737 358.454 311.641 358.557 315.054 358.557H315.029Z" fill="white"/>
<path d="M176.146 295.135C178.82 292.881 181.037 290.68 183.558 288.997C184.807 288.168 186.768 287.754 188.22 288.09C191.506 288.841 191.812 290.473 189.672 293.037C188.322 294.668 186.997 296.378 185.902 298.19C184.781 300.055 183.584 300.547 181.775 299.252C180.553 298.398 179.304 297.595 178.107 296.74C177.521 296.326 176.986 295.834 176.146 295.135Z" fill="white"/>
<path d="M314.851 413.795C316.201 409.496 317.245 405.585 318.697 401.83C319.028 401.001 320.608 400.38 321.678 400.25C322.162 400.199 323.232 401.571 323.308 402.374C323.614 405.352 323.588 408.356 323.741 411.36C323.843 413.199 322.977 413.847 321.296 413.821C319.309 413.769 317.296 413.821 314.851 413.821V413.795Z" fill="white"/>
<path d="M244.06 472.04H234.711C236.036 468.388 237.106 464.815 238.711 461.5C239.118 460.645 241.182 460.283 242.481 460.308C243.016 460.308 243.908 461.888 243.959 462.82C244.162 465.695 244.035 468.596 244.035 472.04H244.06Z" fill="white"/>
<path d="M290.751 527.226C294.776 528.34 298.648 529.272 302.393 530.567C303.284 530.878 304.125 532.38 304.278 533.416C304.354 533.908 302.851 535.125 301.96 535.254C299.03 535.617 296.075 535.72 293.12 535.669C292.509 535.669 291.49 534.685 291.362 534.037C290.98 531.862 290.929 529.635 290.751 527.226Z" fill="white"/>
<path d="M328.76 371.893C330.823 368.527 332.683 365.289 334.772 362.259C335.205 361.638 336.784 361.353 337.523 361.664C338.16 361.923 338.72 363.295 338.669 364.124C338.593 365.471 337.956 366.791 337.574 368.138C336.249 372.523 333.311 373.775 328.76 371.893Z" fill="white"/>
<path d="M561.439 258.643C562.051 255.665 562.637 252.842 563.223 250.02C563.528 248.517 564.293 247.533 565.846 248.414C567.375 249.294 570.534 249.398 569.311 252.195C567.961 255.277 565.745 257.97 563.809 260.767C563.554 261.13 562.306 261.285 562.229 261.155C561.847 260.353 561.669 259.446 561.439 258.643Z" fill="white"/>
<path d="M304.305 441.766C303.516 436.612 302.853 432.132 302.166 427.652C302.42 427.496 302.7 427.367 302.955 427.211C305.07 430.526 307.795 433.634 309.094 437.234C310.139 440.108 306.649 440.341 304.28 441.74L304.305 441.766Z" fill="white"/>
<path d="M356.657 434.463C356.657 434.463 356.558 434.463 356.525 434.463V434.599L356.657 434.463Z" fill="white"/>
<path d="M320.251 512.619C320.251 512.619 320.318 512.619 320.351 512.619C320.351 512.619 320.351 512.552 320.384 512.518L320.251 512.619Z" fill="white"/>
<path d="M356.499 292.783C356.499 292.783 356.631 292.681 356.631 292.647H356.499V292.783Z" fill="white"/>
<path d="M370.471 304.558C370.471 304.558 370.471 304.558 370.434 304.558L370.509 304.482C370.509 304.482 370.434 304.558 370.434 304.596C370.434 304.596 370.471 304.596 370.509 304.596L370.471 304.558Z" fill="white"/>
<path d="M356.657 434.599C356.657 434.599 356.657 434.497 356.657 434.463L356.525 434.599H356.657Z" fill="white"/>
<path d="M370.484 304.559C370.484 304.559 370.484 304.52 370.484 304.482L370.409 304.559C370.409 304.559 370.409 304.559 370.447 304.559H370.484Z" fill="white"/>
<path d="M370.498 304.495C370.498 304.495 370.421 304.495 370.383 304.495V304.572L370.459 304.456L370.498 304.495Z" fill="white"/>
<path d="M356.631 292.783C356.631 292.783 356.631 292.715 356.631 292.647C356.631 292.647 356.499 292.749 356.499 292.783H356.631Z" fill="white"/>
<path d="M500.861 578.556C501.447 578.246 502.033 577.935 502.619 577.624H500.861V578.556Z" fill="white"/>
<path d="M489.475 577.624V582.907C492.073 582.078 494.646 581.172 497.219 580.188C498.059 579.877 498.875 579.515 499.715 579.126V577.624H489.5H489.475Z" fill="white"/>
<path d="M478.116 577.624V585.549C481.529 585.082 484.943 584.28 488.331 583.244V577.624H478.116Z" fill="white"/>
<path d="M466.727 577.624V585.549C470.141 586.067 473.554 586.092 476.942 585.704V577.624H466.727Z" fill="white"/>
<path d="M455.367 577.624V581.664C458.78 583.555 462.194 584.72 465.582 585.367V577.624H455.367Z" fill="white"/>
<path d="M449.685 577.624C451.111 578.867 452.614 579.981 454.193 580.939V577.624H449.685Z" fill="white"/>
<path d="M341.623 584.462C343.839 583.478 345.775 581.873 347.38 579.723C347.89 579.05 348.348 578.325 348.832 577.6H341.649V584.437L341.623 584.462Z" fill="white"/>
<path d="M330.238 577.626V584.696C330.977 584.851 331.741 585.006 332.48 585.162C335.384 585.861 338.059 585.731 340.453 584.903V577.6H330.238V577.626Z" fill="white"/>
<path d="M318.876 577.624V582.208C322.213 583.166 325.652 583.762 329.091 584.461V577.624H318.876Z" fill="white"/>
<path d="M309.169 577.626C311.818 579.231 314.468 580.837 317.321 581.769C317.448 581.821 317.575 581.847 317.703 581.873V577.6H309.169V577.626Z" fill="white"/>
<path d="M512.225 571.744C512.454 571.615 512.658 571.485 512.887 571.33C515.588 569.75 518.161 568.015 520.632 566.15H512.225V571.718V571.744Z" fill="white"/>
<path d="M500.861 566.177V576.562H504.453C506.669 575.241 508.86 573.791 511.076 572.444V566.177H500.861Z" fill="white"/>
<path d="M499.69 566.177H489.475V576.562H499.69V566.177Z" fill="white"/>
<path d="M488.331 566.177H478.116V576.562H488.331V566.177Z" fill="white"/>
<path d="M476.942 566.177H466.727V576.562H476.942V566.177Z" fill="white"/>
<path d="M465.582 566.177H455.367V576.562H465.582V566.177Z" fill="white"/>
<path d="M454.219 566.177H444.004V570.89C444.565 571.745 445.125 572.599 445.737 573.402C446.577 574.516 447.545 575.552 448.59 576.562H454.219V566.177Z" fill="white"/>
<path d="M441.255 566.177C441.739 567.135 442.274 568.093 442.834 569.025V566.177H441.255Z" fill="white"/>
<path d="M352.985 569.958C353.52 568.715 354.03 567.446 354.463 566.177H352.985V569.958Z" fill="white"/>
<path d="M341.623 566.177V576.562H349.52C350.361 575.215 351.125 573.816 351.838 572.392V566.177H341.623Z" fill="white"/>
<path d="M340.453 566.177H330.238V576.562H340.453V566.177Z" fill="white"/>
<path d="M329.091 566.177H318.876V576.562H329.091V566.177Z" fill="white"/>
<path d="M317.702 566.177H307.487V576.562H317.702V566.177Z" fill="white"/>
<path d="M305.986 566.177C305.934 566.772 305.908 567.498 305.908 568.482C305.908 570.32 305.804 572.133 305.908 573.946C305.934 574.464 306.089 575.111 306.322 575.603V566.177H305.96H305.986Z" fill="white"/>
<path d="M522.507 565.141V564.777C522.339 564.889 522.2 565.029 522.032 565.141H522.507Z" fill="white"/>
<path d="M512.225 554.729V565.114H522.007C522.16 565.011 522.287 564.881 522.44 564.778V554.729H512.225Z" fill="white"/>
<path d="M511.076 554.729H500.861V565.114H511.076V554.729Z" fill="white"/>
<path d="M499.69 554.729H489.475V565.114H499.69V554.729Z" fill="white"/>
<path d="M488.331 554.729H478.116V565.114H488.331V554.729Z" fill="white"/>
<path d="M476.942 554.729H466.727V565.114H476.942V554.729Z" fill="white"/>
<path d="M465.582 554.729H455.367V565.114H465.582V554.729Z" fill="white"/>
<path d="M454.193 554.729H443.978V565.114H454.193V554.729Z" fill="white"/>
<path d="M442.832 554.729H437.075C437.966 558.329 439.164 561.8 440.743 565.114H442.832V554.729Z" fill="white"/>
<path d="M352.985 565.114H354.845C356.017 561.644 357.189 558.2 358.36 554.729H352.985V565.114Z" fill="white"/>
<path d="M351.838 554.729H341.623V565.114H351.838V554.729Z" fill="white"/>
<path d="M340.453 554.729H330.238V565.114H340.453V554.729Z" fill="white"/>
<path d="M329.091 554.729H318.876V565.114H329.091V554.729Z" fill="white"/>
<path d="M317.702 565.114V563.612C317.702 563.612 317.55 563.69 317.473 563.69C315.155 563.794 312.837 563.871 310.493 563.897C309.092 563.923 308.15 563.949 307.487 564.104V565.114H317.702Z" fill="white"/>
<path d="M306.364 564.829C306.364 564.829 306.218 565.033 306.189 565.15H306.364V564.829Z" fill="white"/>
<path d="M534.999 553.643C537.419 551.286 539.813 548.878 542.233 546.469C542.921 545.796 543.379 544.345 543.278 543.284H534.999V553.617V553.643Z" fill="white"/>
<path d="M533.825 543.284H523.61V553.669H533.825V543.284Z" fill="white"/>
<path d="M522.44 543.284H512.225V553.669H522.44V543.284Z" fill="white"/>
<path d="M511.076 543.284H500.861V553.669H511.076V543.284Z" fill="white"/>
<path d="M499.69 543.284H489.475V553.669H499.69V543.284Z" fill="white"/>
<path d="M488.331 543.284H478.116V553.669H488.331V543.284Z" fill="white"/>
<path d="M476.942 543.284H466.727V553.669H476.942V543.284Z" fill="white"/>
<path d="M465.582 543.284H455.367V553.669H465.582V543.284Z" fill="white"/>
<path d="M454.193 543.284H443.978V553.669H454.193V543.284Z" fill="white"/>
<path d="M442.83 543.284H435.29C435.29 543.284 435.29 543.413 435.29 543.491C435.57 546.987 436.08 550.38 436.844 553.669H442.83V543.284Z" fill="white"/>
<path d="M352.985 553.669H358.717C359.889 550.198 361.035 546.754 362.181 543.284H352.985V553.669Z" fill="white"/>
<path d="M351.838 543.284H341.623V553.669H351.838V543.284Z" fill="white"/>
<path d="M340.453 543.284H330.238V553.669H340.453V543.284Z" fill="white"/>
<path d="M329.091 543.284H318.876V553.669H329.091V543.284Z" fill="white"/>
<path d="M307.487 543.284V551.364C309.118 551.364 310.773 551.312 312.404 551.312C315.359 551.312 316.913 551.338 317.702 552.037V543.284H307.487Z" fill="white"/>
<path d="M296.128 543.284V551.493C299.542 551.441 302.93 551.416 306.343 551.39V543.284H296.128Z" fill="white"/>
<path d="M294.931 543.284C294.32 545.174 293.862 547.117 293.352 549.007C292.944 550.509 293.632 551.26 294.982 551.415V543.284H294.957H294.931Z" fill="white"/>
<path d="M534.999 542.246H543.023C541.826 538.75 540.475 535.28 539.074 531.861H535.024V542.246H534.999Z" fill="white"/>
<path d="M533.825 542.246V531.861H525.75C525.037 532.224 524.324 532.586 523.61 532.949V542.246H533.825Z" fill="white"/>
<path d="M522.463 542.247V533.52C519.075 535.177 515.662 536.757 512.248 538.336V542.247H522.463Z" fill="white"/>
<path d="M511.076 542.248V538.855C507.357 540.512 503.893 540.642 500.861 539.71V542.222H511.076V542.248Z" fill="white"/>
<path d="M489.476 542.246H499.691V539.32C496.277 537.921 493.526 535.202 491.717 531.861H489.45V542.246H489.476Z" fill="white"/>
<path d="M488.331 531.835H478.116V542.22H488.331V531.835Z" fill="white"/>
<path d="M476.942 531.835H466.727V542.22H476.942V531.835Z" fill="white"/>
<path d="M465.582 531.835H455.367V542.22H465.582V531.835Z" fill="white"/>
<path d="M454.193 531.835H443.978V542.22H454.193V531.835Z" fill="white"/>
<path d="M442.831 531.835H435.138C434.985 535.279 435.011 538.75 435.215 542.22H442.831V531.835Z" fill="white"/>
<path d="M364.372 536.756C364.907 535.124 365.442 533.493 365.977 531.861H364.372V536.756Z" fill="white"/>
<path d="M363.199 542.247V540.253C362.97 540.926 362.766 541.6 362.537 542.247H363.199Z" fill="white"/>
<path d="M356.705 531.835C356.604 536.263 356.018 537.688 353.012 537.921V542.22H362.564C362.794 541.547 362.998 540.873 363.227 540.226V531.835H356.705Z" fill="white"/>
<path d="M344.273 535.668C344.172 534.399 344.146 533.13 344.121 531.861H341.599V542.246H351.814V537.999C350.489 537.999 348.833 537.87 346.693 537.714C345.802 537.636 344.324 536.445 344.248 535.694L344.273 535.668Z" fill="white"/>
<path d="M340.453 531.835H330.238V542.22H340.453V531.835Z" fill="white"/>
<path d="M329.091 531.835H318.876V542.22H329.091V531.835Z" fill="white"/>
<path d="M317.702 531.835H307.487V542.22H317.702V531.835Z" fill="white"/>
<path d="M306.343 542.246V531.861H305.986C305.986 532.638 305.986 533.389 306.063 534.166C306.292 536.989 305.273 537.921 302.42 537.766C300.459 537.662 297.376 537.921 296.663 539.139C296.459 539.501 296.281 539.915 296.103 540.304V542.246H306.318H306.343Z" fill="white"/>
<path d="M538.616 530.8C538.387 530.23 538.157 529.635 537.928 529.065C537.266 527.485 536.4 526.941 534.999 527.33V530.8H538.616Z" fill="white"/>
<path d="M533.825 527.798C533.825 527.798 533.723 527.824 533.698 527.85C531.762 528.86 529.8 529.818 527.864 530.777H533.825V527.772V527.798Z" fill="white"/>
<path d="M491.207 530.802C490.723 529.74 490.315 528.626 490.035 527.513C489.806 526.658 489.627 525.777 489.475 524.897V530.802H491.207Z" fill="white"/>
<path d="M488.331 520.416H478.116V530.8H488.331V520.416Z" fill="white"/>
<path d="M476.942 520.416H466.727V530.8H476.942V520.416Z" fill="white"/>
<path d="M465.582 520.416H455.367V530.8H465.582V520.416Z" fill="white"/>
<path d="M454.193 520.416H443.978V530.8H454.193V520.416Z" fill="white"/>
<path d="M442.833 520.416H435.955C435.649 523.886 435.369 527.33 435.19 530.8H442.833V520.416Z" fill="white"/>
<path d="M364.372 530.8H366.308C367.429 527.33 368.55 523.886 369.671 520.416H364.372V530.8Z" fill="white"/>
<path d="M356.68 526.657C356.909 527.019 356.731 527.693 356.731 528.237C356.731 529.195 356.731 530.024 356.731 530.8H363.227V520.416H353.012V524.715C353.623 524.715 354.26 524.74 354.871 524.792C355.534 524.818 356.221 525.932 356.705 526.657H356.68Z" fill="white"/>
<path d="M351.838 524.662V520.389H341.623V530.774H344.119C344.119 528.832 344.145 526.812 344.145 524.662C346.922 524.662 349.418 524.61 351.813 524.662H351.838Z" fill="white"/>
<path d="M340.453 520.416H330.238V530.8H340.453V520.416Z" fill="white"/>
<path d="M329.091 520.416H318.876V530.8H329.091V520.416Z" fill="white"/>
<path d="M317.702 530.799V523.755C317.218 524.04 316.607 524.196 315.715 524.17C313.295 524.118 310.85 524.48 308.43 524.506C308.073 524.506 307.768 524.558 307.487 524.61V530.774H317.702V530.799Z" fill="white"/>
<path d="M306.342 525.103C305.884 525.543 305.706 526.268 305.833 527.382C305.96 528.496 305.986 529.635 305.986 530.775H306.342V525.103Z" fill="white"/>
<path d="M488.331 508.97H478.116V519.355H488.331V508.97Z" fill="white"/>
<path d="M476.942 508.97H466.727V519.355H476.942V508.97Z" fill="white"/>
<path d="M465.582 508.97H455.367V519.355H465.582V508.97Z" fill="white"/>
<path d="M454.193 508.97H443.978V519.355H454.193V508.97Z" fill="white"/>
<path d="M442.832 508.97H436.922C436.846 509.98 436.719 511.016 436.642 512.026C436.464 514.486 436.235 516.92 436.031 519.355H442.832V508.97Z" fill="white"/>
<path d="M364.372 519.355H370.027C371.123 515.91 372.193 512.44 373.263 508.97H364.398V519.355H364.372Z" fill="white"/>
<path d="M363.2 508.97H352.985V519.355H363.2V508.97Z" fill="white"/>
<path d="M351.838 508.97H341.623V519.355H351.838V508.97Z" fill="white"/>
<path d="M340.453 519.355V508.97H331.818C331.818 508.97 331.818 509.125 331.818 509.203C331.894 511.093 331.359 511.974 330.238 512.311V519.355H340.453Z" fill="white"/>
<path d="M329.091 519.353V512.464C328.887 512.464 328.709 512.464 328.48 512.464C325.754 512.361 323.028 512.516 320.328 512.542C319.844 513.682 319.233 514.795 318.876 515.961V519.327H329.091V519.353Z" fill="white"/>
<path d="M488.331 497.522H478.116V507.907H488.331V497.522Z" fill="white"/>
<path d="M476.942 497.522H466.727V507.907H476.942V497.522Z" fill="white"/>
<path d="M465.582 497.522H455.367V507.907H465.582V497.522Z" fill="white"/>
<path d="M454.193 497.522H443.978V507.907H454.193V497.522Z" fill="white"/>
<path d="M442.832 497.522H438.145C437.712 500.967 437.33 504.437 437.024 507.907H442.832V497.522Z" fill="white"/>
<path d="M375.734 500.708C376.04 499.646 376.346 498.584 376.651 497.522H375.734V500.708Z" fill="white"/>
<path d="M364.372 497.522V507.907H373.568C373.899 506.82 374.256 505.732 374.587 504.644V497.522H364.372Z" fill="white"/>
<path d="M363.2 497.522H352.985V507.907H363.2V497.522Z" fill="white"/>
<path d="M351.838 497.522H341.623V507.907H351.838V497.522Z" fill="white"/>
<path d="M340.451 497.522H331.586C331.611 500.993 331.688 504.437 331.79 507.907H340.451V497.522Z" fill="white"/>
<path d="M488.331 486.077H478.116V496.462H488.331V486.077Z" fill="white"/>
<path d="M476.942 486.077H466.727V496.462H476.942V486.077Z" fill="white"/>
<path d="M465.582 486.077H455.367V496.462H465.582V486.077Z" fill="white"/>
<path d="M454.193 486.077H443.978V496.462H454.193V486.077Z" fill="white"/>
<path d="M442.831 486.077H439.774C439.24 489.521 438.73 492.991 438.271 496.462H442.831V486.077Z" fill="white"/>
<path d="M375.734 496.462H376.957C377.925 493.017 378.868 489.547 379.785 486.077H375.734V496.462Z" fill="white"/>
<path d="M374.587 486.077H364.372V496.462H374.587V486.077Z" fill="white"/>
<path d="M363.2 486.077H352.985V496.462H363.2V486.077Z" fill="white"/>
<path d="M351.838 486.077H341.623V496.462H351.838V486.077Z" fill="white"/>
<path d="M340.452 486.077H332.861C331.791 486.413 331.383 487.294 331.434 488.951C331.511 491.463 331.536 493.949 331.562 496.462H340.452V486.077Z" fill="white"/>
<path d="M489.475 482.035C489.627 479.574 489.806 477.114 490.01 474.628H489.475V482.035Z" fill="white"/>
<path d="M488.331 474.628H478.116V485.013H488.331V474.628Z" fill="white"/>
<path d="M476.942 474.628H466.727V485.013H476.942V474.628Z" fill="white"/>
<path d="M465.582 474.628H455.367V485.013H465.582V474.628Z" fill="white"/>
<path d="M454.193 474.628H443.978V485.013H454.193V474.628Z" fill="white"/>
<path d="M442.833 474.628H441.738C441.101 478.072 440.515 481.543 439.955 485.013H442.859V474.628H442.833Z" fill="white"/>
<path d="M375.734 485.013H380.065C380.957 481.568 381.823 478.098 382.663 474.628H375.76V485.013H375.734Z" fill="white"/>
<path d="M374.587 474.628H364.372V485.013H374.587V474.628Z" fill="white"/>
<path d="M363.2 474.628H352.985V485.013H363.2V474.628Z" fill="white"/>
<path d="M351.839 474.628H344.121C344.121 477.528 344.121 480.429 344.121 483.329C344.121 484.081 343.993 484.624 343.764 485.039H351.814V474.654L351.839 474.628Z" fill="white"/>
<path d="M489.475 473.566H490.111C490.417 470.095 490.748 466.625 491.156 463.181H489.5V473.566H489.475Z" fill="white"/>
<path d="M488.331 463.181H478.116V473.566H488.331V463.181Z" fill="white"/>
<path d="M476.942 463.181H466.727V473.566H476.942V463.181Z" fill="white"/>
<path d="M465.582 463.181H455.367V473.566H465.582V463.181Z" fill="white"/>
<path d="M454.193 463.181H443.978V473.566H454.193V463.181Z" fill="white"/>
<path d="M442.833 468.648C442.527 470.28 442.221 471.937 441.916 473.569H442.833V468.648Z" fill="white"/>
<path d="M375.734 473.566H382.918C383.759 470.095 384.574 466.651 385.389 463.181H375.76V473.566H375.734Z" fill="white"/>
<path d="M374.587 463.181H364.372V473.566H374.587V463.181Z" fill="white"/>
<path d="M363.2 463.181H352.985V473.566H363.2V463.181Z" fill="white"/>
<path d="M351.839 463.181H344.095C344.095 466.651 344.095 470.095 344.095 473.566H351.813V463.181H351.839Z" fill="white"/>
<path d="M489.475 462.146H491.258C491.563 459.634 491.895 457.122 492.251 454.636C492.404 453.678 492.532 452.719 492.684 451.761H489.475V462.146Z" fill="white"/>
<path d="M488.331 451.735H478.116V462.12H488.331V451.735Z" fill="white"/>
<path d="M476.942 451.735H466.727V462.12H476.942V451.735Z" fill="white"/>
<path d="M465.582 451.735H455.367V462.12H465.582V451.735Z" fill="white"/>
<path d="M454.219 451.735H446.169C445.482 455.205 444.794 458.649 444.106 462.12H454.219V451.735Z" fill="white"/>
<path d="M387.12 455.619C387.425 454.325 387.706 453.03 388.011 451.735H387.12V455.619Z" fill="white"/>
<path d="M385.645 462.147H385.981V460.723C385.904 461.008 385.852 461.292 385.774 461.577C385.722 461.759 385.67 461.966 385.645 462.147Z" fill="white"/>
<path d="M375.734 451.735V462.12H385.618C385.669 461.938 385.72 461.731 385.746 461.55C385.822 461.265 385.873 460.98 385.949 460.695V451.735H375.734Z" fill="white"/>
<path d="M374.587 451.735H364.372V462.12H374.587V451.735Z" fill="white"/>
<path d="M363.2 451.735H352.985V462.12H363.2V451.735Z" fill="white"/>
<path d="M351.837 451.735H344.042C344.042 455.205 344.067 458.649 344.093 462.12H351.837V451.735Z" fill="white"/>
<path d="M489.475 450.7H492.863C493.372 447.23 493.882 443.786 494.417 440.315H489.475V450.7Z" fill="white"/>
<path d="M488.331 440.315H478.116V450.7H488.331V440.315Z" fill="white"/>
<path d="M476.942 440.315H466.727V450.7H476.942V440.315Z" fill="white"/>
<path d="M465.582 440.315H455.367V450.7H465.582V440.315Z" fill="white"/>
<path d="M454.22 440.315H448.514C448.183 441.895 447.801 443.449 447.495 445.029C447.113 446.919 446.731 448.81 446.374 450.7H454.22V440.315Z" fill="white"/>
<path d="M387.12 450.7H388.24C389.03 447.23 389.82 443.786 390.61 440.315H387.12V450.7Z" fill="white"/>
<path d="M385.949 440.315H375.734V450.7H385.949V440.315Z" fill="white"/>
<path d="M364.372 447.852V450.7H374.587V440.315H369.441C369.441 442.646 369.467 445.081 369.467 447.826C367.709 447.826 366.028 447.877 364.372 447.877V447.852Z" fill="white"/>
<path d="M356.884 445.029C356.756 443.475 356.705 441.895 356.68 440.315H353.012V450.7H363.227V447.852C361.826 447.852 360.425 447.8 359.075 447.696C358.234 447.619 356.986 446.039 356.909 445.055L356.884 445.029Z" fill="white"/>
<path d="M351.841 440.315H343.995C344.02 443.786 344.02 447.23 344.046 450.7H351.841V440.315Z" fill="white"/>
<path d="M489.475 439.255H494.569C495.104 435.785 495.639 432.34 496.2 428.87H489.475V439.255Z" fill="white"/>
<path d="M488.331 428.87H478.116V439.255H488.331V428.87Z" fill="white"/>
<path d="M476.942 428.87H466.727V439.255H476.942V428.87Z" fill="white"/>
<path d="M465.582 428.87H455.367V439.255H465.582V428.87Z" fill="white"/>
<path d="M454.219 428.87H451.085C450.27 432.314 449.506 435.785 448.767 439.255H454.244V428.87H454.219Z" fill="white"/>
<path d="M387.12 439.255H390.839C391.629 435.785 392.418 432.34 393.208 428.87H387.12V439.255Z" fill="white"/>
<path d="M385.949 428.87H375.734V439.255H385.949V428.87Z" fill="white"/>
<path d="M369.492 437.287C369.467 437.934 369.441 438.608 369.441 439.255H374.587V428.87H364.372V434.542C365.238 434.542 366.104 434.542 366.97 434.542C368.779 434.542 369.594 435.293 369.518 437.287H369.492Z" fill="white"/>
<path d="M356.499 434.436V434.571H356.631C356.631 434.571 356.631 434.47 356.631 434.436C356.598 434.436 356.532 434.436 356.499 434.436Z" fill="white"/>
<path d="M356.655 439.252C356.655 437.673 356.655 436.119 356.629 434.539H356.527V434.436C355.355 434.436 354.184 434.436 353.012 434.436V439.252H356.655Z" fill="white"/>
<path d="M356.627 434.438C356.627 434.438 356.627 434.516 356.627 434.542C358.818 434.542 361.008 434.542 363.225 434.542V428.87H356.525V434.438C356.525 434.438 356.601 434.438 356.627 434.438Z" fill="white"/>
<path d="M351.838 434.435C350.259 434.435 348.68 434.435 347.126 434.331C344.604 434.202 343.967 435.108 343.992 437.646C343.992 438.19 343.992 438.708 343.992 439.252H351.838V434.435Z" fill="white"/>
<path d="M489.475 427.808H496.353C496.913 424.337 497.448 420.893 498.034 417.423H489.475V427.808Z" fill="white"/>
<path d="M488.331 417.423H478.116V427.808H488.331V417.423Z" fill="white"/>
<path d="M476.942 417.423H466.727V427.808H476.942V417.423Z" fill="white"/>
<path d="M465.582 417.423H455.367V427.808H465.582V417.423Z" fill="white"/>
<path d="M454.219 417.423H453.863C452.997 420.893 452.156 424.337 451.315 427.808H454.194V417.423H454.219Z" fill="white"/>
<path d="M387.12 427.808H393.437C394.201 424.337 394.94 420.893 395.704 417.423H387.12V427.808Z" fill="white"/>
<path d="M385.949 417.423H375.734V427.808H385.949V417.423Z" fill="white"/>
<path d="M374.587 417.423H364.372V427.808H374.587V417.423Z" fill="white"/>
<path d="M363.198 417.423H356.499V427.808H363.198V417.423Z" fill="white"/>
<path d="M489.475 405.974V416.359H498.212C498.696 413.484 499.18 410.609 499.69 407.735V405.974H489.475Z" fill="white"/>
<path d="M488.331 405.974H478.116V416.359H488.331V405.974Z" fill="white"/>
<path d="M476.942 405.974H466.727V416.359H476.942V405.974Z" fill="white"/>
<path d="M465.582 416.359V405.974H456.742C456.284 407.812 455.825 409.625 455.367 411.464V416.359H465.582Z" fill="white"/>
<path d="M454.23 416.049C454.23 416.049 454.172 416.282 454.143 416.428H454.23V416.049Z" fill="white"/>
<path d="M394.762 405.975C394.507 408.668 393.31 408.72 388.521 408.72C388.011 408.72 387.553 408.72 387.12 408.72V416.334H395.934C396.418 414.159 396.876 412.009 397.335 409.834V405.949H394.762V405.975Z" fill="white"/>
<path d="M382.588 405.974H375.761V416.359H385.976V408.771C383.148 408.874 382.664 408.822 382.588 405.974Z" fill="white"/>
<path d="M374.587 405.974H364.372V416.359H374.587V405.974Z" fill="white"/>
<path d="M363.199 405.974H353.926C353.646 406.802 353.392 407.605 353.111 408.46C354.691 408.822 355.659 409.03 356.499 409.211V416.359H363.199V405.974Z" fill="white"/>
<path d="M500.861 401.158C501.269 398.956 501.676 396.755 502.084 394.528H500.861V401.158Z" fill="white"/>
<path d="M499.69 394.528H489.475V404.913H499.69V394.528Z" fill="white"/>
<path d="M488.331 394.528H478.116V404.913H488.331V394.528Z" fill="white"/>
<path d="M476.942 394.528H466.727V404.913H476.942V394.528Z" fill="white"/>
<path d="M465.581 394.528H459.595C458.754 397.998 457.888 401.442 457.022 404.913H465.581V394.528Z" fill="white"/>
<path d="M398.483 404.524C399.018 401.986 399.604 399.422 400.139 396.885C400.318 396.108 400.445 395.305 400.623 394.528H398.483V404.524Z" fill="white"/>
<path d="M390.789 396.056C394.101 395.564 395.451 396.962 394.788 400.329C394.661 400.95 394.788 401.598 394.788 402.245C394.788 403.307 394.839 404.188 394.788 404.913H397.31V394.528H387.095V395.797C387.859 395.823 388.751 395.875 389.821 395.952C390.127 395.952 390.458 396.082 390.763 396.03L390.789 396.056Z" fill="white"/>
<path d="M385.949 395.797V394.528H375.734V404.913H382.561C382.561 404.317 382.561 403.644 382.561 402.867C382.587 397.169 382.612 395.874 385.924 395.797H385.949Z" fill="white"/>
<path d="M369.39 394.528H364.372V395.771C365.213 395.771 366.079 395.771 366.919 395.823C368.321 395.875 369.11 395.538 369.365 394.528H369.39Z" fill="white"/>
<path d="M374.586 404.913V394.528H369.389C369.109 395.538 368.345 395.875 366.944 395.823C366.103 395.797 365.237 395.771 364.396 395.771V404.913H374.612H374.586Z" fill="white"/>
<path d="M363.203 395.745C362.005 395.745 360.808 395.771 359.611 395.823C358.719 395.849 357.293 396.082 357.089 396.626C356.07 399.345 355.153 402.116 354.261 404.913H363.203V395.745Z" fill="white"/>
<path d="M500.861 393.465H502.288C502.721 391.109 503.154 388.726 503.613 386.37C503.816 385.256 504.097 384.168 504.326 383.055H500.887V393.44L500.861 393.465Z" fill="white"/>
<path d="M499.69 383.081H489.475V393.465H499.69V383.081Z" fill="white"/>
<path d="M488.331 383.081H478.116V393.465H488.331V383.081Z" fill="white"/>
<path d="M476.942 383.081H466.727V393.465H476.942V383.081Z" fill="white"/>
<path d="M465.58 383.081H462.345C461.504 386.551 460.689 389.995 459.848 393.465H465.58V383.081Z" fill="white"/>
<path d="M398.483 393.465H400.826C401.539 390.021 402.227 386.551 402.89 383.081H398.457V393.465H398.483Z" fill="white"/>
<path d="M397.335 383.081H387.12V393.465H397.335V383.081Z" fill="white"/>
<path d="M385.949 383.081H375.734V393.465H385.949V383.081Z" fill="white"/>
<path d="M374.585 383.081H369.44C369.44 386.732 369.338 389.995 369.49 393.232C369.49 393.336 369.49 393.388 369.49 393.465H374.611V383.081H374.585Z" fill="white"/>
<path d="M500.862 382.018H504.531C505.244 378.548 505.957 375.078 506.747 371.633H500.837V382.018H500.862Z" fill="white"/>
<path d="M499.69 371.633H489.475V382.018H499.69V371.633Z" fill="white"/>
<path d="M488.331 371.633H478.116V382.018H488.331V371.633Z" fill="white"/>
<path d="M476.942 371.633H466.727V382.018H476.942V371.633Z" fill="white"/>
<path d="M465.581 371.633H465.097C464.256 375.104 463.441 378.548 462.601 382.018H465.581V371.633Z" fill="white"/>
<path d="M398.483 382.018H403.12C403.782 378.548 404.419 375.104 405.056 371.633H398.483V382.018Z" fill="white"/>
<path d="M397.335 371.633H387.12V382.018H397.335V371.633Z" fill="white"/>
<path d="M385.949 371.633H375.734V381.552C376.881 381.707 377.696 381.008 378.435 379.687C379.377 377.978 380.371 376.295 381.339 374.586C381.619 374.637 381.899 374.663 382.179 374.715C382.281 376.45 382.281 378.185 382.51 379.895C382.663 380.905 382.51 381.552 382.179 382.044H385.949V371.659V371.633Z" fill="white"/>
<path d="M357.979 367.777C357.545 368.45 357.112 369.124 356.628 369.771C355.482 371.377 355.711 372.594 357.265 373.5C359.456 374.769 361.876 375.676 363.99 377.022C364.169 377.126 364.322 377.204 364.5 377.307V367.777H357.953H357.979Z" fill="white"/>
<path d="M500.861 370.601H507.026C507.816 367.13 508.656 363.66 509.497 360.216H500.887V370.601H500.861Z" fill="white"/>
<path d="M499.69 360.216H489.475V370.601H499.69V360.216Z" fill="white"/>
<path d="M488.331 360.216H478.116V370.601H488.331V360.216Z" fill="white"/>
<path d="M476.967 370.601V360.216H467.873C467.491 361.77 467.134 363.324 466.752 364.877V370.601H476.967Z" fill="white"/>
<path d="M465.583 369.664C465.506 369.975 465.428 370.286 465.35 370.596H465.583V369.664Z" fill="white"/>
<path d="M398.483 370.601H405.233C405.87 367.13 406.507 363.686 407.118 360.216H398.457V370.601H398.483Z" fill="white"/>
<path d="M397.335 360.216H387.12V370.601H397.335V360.216Z" fill="white"/>
<path d="M385.95 370.601V360.216H382.384C382.384 363.039 382.384 365.861 382.359 368.71C382.359 369.254 382.027 369.798 381.798 370.575C379.709 369.306 377.722 368.115 375.761 366.949V370.627H385.976L385.95 370.601Z" fill="white"/>
<path d="M374.918 361.25C374.204 360.81 373.491 360.396 372.778 359.956C371.504 361.898 370.307 363.763 369.084 365.627H374.918V361.25Z" fill="white"/>
<path d="M512.225 349.024C512.225 349.024 512.281 348.855 512.281 348.742H512.225V349.024Z" fill="white"/>
<path d="M500.861 348.767V359.151H509.726C510.159 357.339 510.618 355.5 511.076 353.687V348.767H500.861Z" fill="white"/>
<path d="M499.69 348.767H489.475V359.151H499.69V348.767Z" fill="white"/>
<path d="M488.331 348.767H478.116V359.151H488.331V348.767Z" fill="white"/>
<path d="M476.968 348.767H470.625C469.785 352.237 468.97 355.681 468.129 359.151H476.968V348.767Z" fill="white"/>
<path d="M398.483 348.767V359.151H407.323C407.476 358.349 407.603 357.546 407.756 356.769C408.087 354.956 408.393 353.143 408.698 351.305V348.767H398.483Z" fill="white"/>
<path d="M397.335 348.767H387.12V359.151H397.335V348.767Z" fill="white"/>
<path d="M385.947 348.767H382.305C382.356 352.237 382.381 355.681 382.381 359.151H385.947V348.767Z" fill="white"/>
<path d="M318.876 354.258C319.869 352.316 321.016 350.477 322.239 348.742H318.876V354.258Z" fill="white"/>
<path d="M307.487 348.767V356.458C310.646 356.562 313.805 356.484 316.964 356.355C317.193 356.355 317.448 356.199 317.702 356.018V348.793H307.487V348.767Z" fill="white"/>
<path d="M305.885 348.768C305.885 350.762 305.885 352.679 305.962 354.595C305.962 354.88 306.144 355.294 306.351 355.631V348.742H305.885V348.768Z" fill="white"/>
<path d="M512.225 347.706H512.556C513.422 344.236 514.238 340.792 515.078 337.321H512.225V347.706Z" fill="white"/>
<path d="M511.076 337.321H500.861V347.706H511.076V337.321Z" fill="white"/>
<path d="M499.69 337.321H489.475V347.706H499.69V337.321Z" fill="white"/>
<path d="M488.331 337.321H478.116V347.706H488.331V337.321Z" fill="white"/>
<path d="M476.968 337.321H473.376C472.536 340.792 471.695 344.236 470.88 347.706H476.968V337.321Z" fill="white"/>
<path d="M409.869 344.598C410.276 342.19 410.684 339.756 411.091 337.321H409.869V344.598Z" fill="white"/>
<path d="M408.698 337.321H398.483V347.706H408.698V337.321Z" fill="white"/>
<path d="M397.335 337.321H387.12V347.706H397.335V337.321Z" fill="white"/>
<path d="M385.949 337.321H376.32C376.116 338.021 375.938 338.72 375.734 339.445V344.106C377.314 344.132 378.817 344.106 380.243 344.469C381.084 344.676 382.256 345.971 382.281 346.8C382.281 347.111 382.281 347.421 382.281 347.732H385.949V337.347V337.321Z" fill="white"/>
<path d="M374.46 344.104C374.46 344.104 374.547 344.104 374.605 344.104V343.639C374.547 343.784 374.518 343.959 374.46 344.104Z" fill="white"/>
<path d="M330.237 339.626C330.798 339.082 331.333 338.538 331.893 338.021C332.173 337.762 332.454 337.554 332.708 337.321H330.212V339.626H330.237Z" fill="white"/>
<path d="M318.876 337.321V347.706H323.028C324.862 345.272 326.926 342.993 329.117 340.792V337.321H318.901H318.876Z" fill="white"/>
<path d="M317.702 347.705V344.234H307.487V347.705H317.702Z" fill="white"/>
<path d="M306.35 344.234H305.909C305.909 345.426 305.909 346.565 305.909 347.705H306.375V344.234H306.35Z" fill="white"/>
<path d="M569.106 328.049C570.227 327.609 571.195 326.909 571.934 325.874H569.106V328.049Z" fill="white"/>
<path d="M557.746 325.874V328.67C560.293 328.67 562.841 328.67 565.388 328.67C566.305 328.67 567.146 328.593 567.961 328.411V325.874H557.746Z" fill="white"/>
<path d="M546.357 325.874V328.645C549.771 328.645 553.159 328.645 556.573 328.645V325.848H546.357V325.874Z" fill="white"/>
<path d="M534.999 325.874V328.645C538.412 328.645 541.8 328.645 545.214 328.645V325.874H534.999Z" fill="white"/>
<path d="M523.61 325.874V328.619C527.024 328.619 530.412 328.619 533.825 328.619V325.848H523.61V325.874Z" fill="white"/>
<path d="M512.225 325.874V336.258H515.333C515.766 334.497 516.199 332.762 516.607 331.027C517.04 329.188 517.88 328.515 519.664 328.645C520.581 328.722 521.523 328.696 522.44 328.645V325.874H512.225Z" fill="white"/>
<path d="M511.076 325.874H500.861V336.258H511.076V325.874Z" fill="white"/>
<path d="M499.69 325.874H489.475V336.258H499.69V325.874Z" fill="white"/>
<path d="M488.331 325.874H478.116V336.258H488.331V325.874Z" fill="white"/>
<path d="M476.967 325.874H466.752V328.774H475.082C474.623 331.234 474.292 333.436 473.783 335.611C473.732 335.818 473.681 336.025 473.63 336.233H476.967V325.848V325.874Z" fill="white"/>
<path d="M455.367 325.874V328.774H465.582V325.874H455.367Z" fill="white"/>
<path d="M443.978 325.874V328.774H454.193V325.874H443.978Z" fill="white"/>
<path d="M432.618 325.874V328.774H442.833V325.874H432.618Z" fill="white"/>
<path d="M421.229 325.874V328.774H431.444V325.874H421.229Z" fill="white"/>
<path d="M409.869 325.874V336.258H411.27C411.677 333.772 412.085 331.286 412.518 328.774H420.109V325.874H409.894H409.869Z" fill="white"/>
<path d="M408.698 325.874H398.483V336.258H408.698V325.874Z" fill="white"/>
<path d="M397.335 325.874H387.12V336.258H397.335V325.874Z" fill="white"/>
<path d="M385.949 325.874H375.734V328.67C376.6 328.67 377.543 328.67 378.689 328.67C377.976 331.286 377.288 333.798 376.6 336.258H385.949V325.874Z" fill="white"/>
<path d="M364.372 325.874V328.567C367.633 328.567 370.893 328.645 374.154 328.645H374.587V325.848H364.372V325.874Z" fill="white"/>
<path d="M352.985 325.874V328.878C353.597 328.826 354.183 328.748 354.794 328.722C357.596 328.593 360.398 328.567 363.2 328.567V325.874H352.985Z" fill="white"/>
<path d="M329.091 336.259V331.571C328.811 331.571 328.531 331.597 328.199 331.571C325.881 331.442 323.538 331.83 321.22 331.727C319.92 331.675 319.233 332.011 318.876 332.737V336.259H329.091Z" fill="white"/>
<path d="M569.106 324.813H572.571C572.749 324.476 572.902 324.113 573.029 323.725C573.793 321.498 574.838 319.374 575.551 317.121C575.831 316.215 576.111 315.308 576.417 314.402H569.081V324.787L569.106 324.813Z" fill="white"/>
<path d="M567.961 314.428H557.746V324.813H567.961V314.428Z" fill="white"/>
<path d="M556.573 314.428H546.357V324.813H556.573V314.428Z" fill="white"/>
<path d="M545.214 314.428H534.999V324.813H545.214V314.428Z" fill="white"/>
<path d="M533.825 314.428H523.61V324.813H533.825V314.428Z" fill="white"/>
<path d="M522.44 314.428H512.225V324.813H522.44V314.428Z" fill="white"/>
<path d="M511.076 314.428H500.861V324.813H511.076V314.428Z" fill="white"/>
<path d="M489.678 317.821C489.678 317.821 489.551 317.821 489.475 317.821V324.813H499.69V314.428H496.429C496.174 317.873 495.053 317.873 489.678 317.821Z" fill="white"/>
<path d="M483.898 314.428H478.116V324.813H488.331V317.795C484.739 317.717 484 317.406 483.898 314.428Z" fill="white"/>
<path d="M476.942 314.428H466.727V324.813H476.942V314.428Z" fill="white"/>
<path d="M465.582 314.428H455.367V324.813H465.582V314.428Z" fill="white"/>
<path d="M454.193 314.428H443.978V324.813H454.193V314.428Z" fill="white"/>
<path d="M442.833 314.428H432.618V324.813H442.833V314.428Z" fill="white"/>
<path d="M431.444 314.428H421.229V324.813H431.444V314.428Z" fill="white"/>
<path d="M418.148 317.639C415.422 317.898 412.645 317.743 409.894 317.769C409.894 317.769 409.894 317.769 409.869 317.769V324.813H420.084V315.8C419.905 316.525 418.836 317.561 418.148 317.639Z" fill="white"/>
<path d="M407.577 315.127C407.577 314.894 407.577 314.661 407.577 314.428H398.457V324.813H408.672V317.562C407.781 317.199 407.475 316.371 407.551 315.127H407.577Z" fill="white"/>
<path d="M397.335 314.428H387.12V324.813H397.335V314.428Z" fill="white"/>
<path d="M380.04 317.82C378.614 317.743 377.187 317.769 375.761 317.769V324.787H385.976V314.402H382.282C382.282 314.713 382.308 314.997 382.333 315.308C382.409 317.043 381.951 317.898 380.066 317.82H380.04Z" fill="white"/>
<path d="M369.873 316.189C369.873 315.594 369.924 315.024 369.95 314.428H364.396V324.813H374.612V317.769C373.796 317.769 372.981 317.743 372.166 317.665C371.351 317.588 369.899 316.681 369.899 316.163L369.873 316.189Z" fill="white"/>
<path d="M363.2 314.428H352.985V324.813H363.2V314.428Z" fill="white"/>
<path d="M351.838 314.428H341.623V324.813H351.838V314.428Z" fill="white"/>
<path d="M340.454 314.428H331.538C331.589 317.898 331.64 321.343 331.716 324.813H340.479V314.428H340.454Z" fill="white"/>
<path d="M569.106 302.979V313.364H576.774C577.64 310.671 578.481 307.977 579.322 305.284V302.979H569.106Z" fill="white"/>
<path d="M567.961 302.979H557.746V313.364H567.961V302.979Z" fill="white"/>
<path d="M556.573 302.979H546.357V313.364H556.573V302.979Z" fill="white"/>
<path d="M545.214 302.979H534.999V313.364H545.214V302.979Z" fill="white"/>
<path d="M533.825 302.979H523.61V313.364H533.825V302.979Z" fill="white"/>
<path d="M511.076 302.979H500.861V313.364H511.076V302.979Z" fill="white"/>
<path d="M489.475 305.051C489.831 305.051 490.188 305.051 490.595 305.051C494.535 305.051 496.505 307.01 496.505 310.93C496.505 311.862 496.505 312.665 496.505 313.364H499.715V302.979H489.5V305.025L489.475 305.051Z" fill="white"/>
<path d="M488.331 305.051V302.979H478.116V313.364H483.898C483.898 312.794 483.898 312.173 483.949 311.473C484.102 305.905 484.128 305.154 488.331 305.051Z" fill="white"/>
<path d="M476.942 302.979H466.727V313.364H476.942V302.979Z" fill="white"/>
<path d="M465.582 302.979H455.367V313.364H465.582V302.979Z" fill="white"/>
<path d="M443.978 304.377V313.364H454.193V302.979H445.328C445.073 303.471 444.513 303.937 443.978 304.377Z" fill="white"/>
<path d="M433.305 302.979H432.618V313.364H442.833V304.844C442.833 304.844 442.68 304.844 442.629 304.844C436.897 305.128 434.274 305.025 433.305 303.005V302.979Z" fill="white"/>
<path d="M431.444 302.979H421.229V313.364H431.444V302.979Z" fill="white"/>
<path d="M420.084 305.025V302.979H409.869V305.18C410.582 305.077 411.524 305.051 412.824 305.025C415.091 304.973 417.358 305.025 420.084 305.025Z" fill="white"/>
<path d="M408.698 305.621V302.979H398.483V313.364H407.629C407.68 312.328 407.705 311.318 407.73 310.282C407.807 307.459 407.858 306.19 408.673 305.595L408.698 305.621Z" fill="white"/>
<path d="M397.335 302.979H387.12V313.364H397.335V302.979Z" fill="white"/>
<path d="M382.332 308.91C382.103 310.36 382.128 311.862 382.205 313.364H385.949V302.979H375.734V304.895C376.6 304.947 377.441 304.947 378.307 304.895C381.364 304.688 382.867 305.413 382.332 308.91Z" fill="white"/>
<path d="M370.46 304.455C370.46 304.455 370.46 304.481 370.46 304.507C371.835 304.585 373.211 304.74 374.586 304.844V302.979H369.976C370.103 303.471 370.256 303.963 370.383 304.429C370.383 304.429 370.434 304.429 370.46 304.429V304.455Z" fill="white"/>
<path d="M370.409 304.508V304.456C368.397 304.508 366.385 304.586 364.372 304.611V313.365H369.976C370.104 310.412 370.282 307.46 370.46 304.508C370.46 304.508 370.435 304.508 370.409 304.508Z" fill="white"/>
<path d="M357.087 302.979H352.985V313.364H363.2V304.611C361.647 304.611 360.067 304.662 358.513 304.611C358.08 304.611 357.418 303.756 357.087 302.979Z" fill="white"/>
<path d="M340.451 304.767C338.591 304.612 336.706 304.741 334.821 304.586C332.222 304.379 331.28 305.363 331.407 308.108C331.484 309.869 331.484 311.63 331.509 313.391H340.451V304.767Z" fill="white"/>
<path d="M580.495 301.66C581.565 298.293 582.584 294.926 583.628 291.56H580.495V301.66Z" fill="white"/>
<path d="M579.322 291.532H569.106V301.917H579.322V291.532Z" fill="white"/>
<path d="M567.961 291.532H557.746V301.917H567.961V291.532Z" fill="white"/>
<path d="M556.573 291.532H546.357V301.917H556.573V291.532Z" fill="white"/>
<path d="M545.214 291.532H534.999V301.917H545.214V291.532Z" fill="white"/>
<path d="M533.825 291.532H523.61V301.917H533.825V291.532Z" fill="white"/>
<path d="M517.727 292.621C515.893 292.621 513.983 292.854 512.225 292.518V301.944H522.44V291.56H522.033C521.65 292.466 520.377 292.647 517.727 292.647V292.621Z" fill="white"/>
<path d="M500.861 291.532V301.917H511.076V291.92C510.924 291.791 510.771 291.687 510.643 291.532H500.861Z" fill="white"/>
<path d="M499.69 291.532H489.475V301.917H499.69V291.532Z" fill="white"/>
<path d="M488.331 291.532H478.116V301.917H488.331V291.532Z" fill="white"/>
<path d="M476.967 301.917V291.532H471.159C471.159 291.894 471.159 292.257 471.159 292.619C469.554 292.619 468.128 292.619 466.752 292.619V301.917H476.967Z" fill="white"/>
<path d="M455.367 301.917H465.582V292.619C465.2 292.619 464.792 292.619 464.41 292.619C460.563 292.594 459.341 292.904 458.959 291.532H455.367V301.917Z" fill="white"/>
<path d="M443.978 292.723C444.513 292.723 445.022 292.723 445.583 292.723C445.583 296.323 445.685 299.146 445.532 301.917H454.219V291.532H444.003V292.723H443.978Z" fill="white"/>
<path d="M433.255 294.641C433.331 293.942 434.478 292.854 435.165 292.829C437.662 292.699 440.209 292.699 442.859 292.725V291.56H432.644V301.944H433C432.695 300.391 432.873 298.06 433.28 294.667L433.255 294.641Z" fill="white"/>
<path d="M431.444 291.532H421.229V301.917H431.444V291.532Z" fill="white"/>
<path d="M420.084 291.532H409.869V301.917H420.084V291.532Z" fill="white"/>
<path d="M408.698 301.917V291.532H407.374C407.043 292.309 406.355 292.697 405.081 292.645C402.89 292.568 400.674 292.568 398.483 292.645V301.917H408.698Z" fill="white"/>
<path d="M387.12 301.917H397.335V292.645C396.086 292.645 395.424 292.283 395.093 291.532H387.12V301.917Z" fill="white"/>
<path d="M385.949 301.917V291.532H382.434C382.434 291.894 382.434 292.257 382.434 292.619C380.167 292.619 377.951 292.594 375.734 292.619V301.917H385.949Z" fill="white"/>
<path d="M364.372 292.723C364.958 292.723 365.544 292.723 366.155 292.723H369.569C369.569 295.727 369.492 298.369 369.594 301.01C369.594 301.321 369.645 301.632 369.722 301.917H374.587V292.645C373.925 292.645 373.237 292.645 372.575 292.671C371.097 292.749 370.333 292.36 370.002 291.532H364.372V292.723Z" fill="white"/>
<path d="M356.6 292.647C356.6 292.647 356.6 292.699 356.6 292.751C358.766 292.751 360.982 292.751 363.224 292.751V291.56H356.499V292.647H356.6Z" fill="white"/>
<path d="M356.858 301.918C356.629 298.862 356.655 295.781 356.604 292.725H356.502V292.621C355.33 292.621 354.158 292.621 353.012 292.621V301.918H356.884H356.858Z" fill="white"/>
<path d="M351.838 292.647C349.29 292.647 346.743 292.647 344.094 292.647C344.094 295.988 343.992 298.966 344.119 301.945H351.838V292.647Z" fill="white"/>
<path d="M580.495 290.499H583.96C584.851 287.625 585.743 284.776 586.634 281.901C586.813 281.306 586.965 280.71 587.144 280.114H580.495V290.499Z" fill="white"/>
<path d="M579.322 280.114H569.106V290.499H579.322V280.114Z" fill="white"/>
<path d="M567.961 280.114H557.746V290.499H567.961V280.114Z" fill="white"/>
<path d="M556.573 280.114H546.357V290.499H556.573V280.114Z" fill="white"/>
<path d="M545.214 280.114H534.999V290.499H545.214V280.114Z" fill="white"/>
<path d="M533.825 280.114H523.61V290.499H533.825V280.114Z" fill="white"/>
<path d="M512.225 287.262C515.155 286.977 518.135 287.158 521.345 287.158C521.829 288.66 522.084 289.696 522.16 290.499H522.44V280.114H512.225V287.288V287.262Z" fill="white"/>
<path d="M511.076 287.779V280.088H500.861V290.473H509.956C509.879 290.291 509.803 290.11 509.803 289.981C509.803 289.333 510.44 288.375 511.076 287.779Z" fill="white"/>
<path d="M499.69 280.114H489.475V290.499H499.69V280.114Z" fill="white"/>
<path d="M488.331 280.114H478.116V290.499H488.331V280.114Z" fill="white"/>
<path d="M476.968 280.114H471.16C471.16 283.533 471.16 286.951 471.16 290.499H476.968V280.114Z" fill="white"/>
<path d="M455.367 290.499H458.806C458.755 289.67 458.78 288.556 458.755 286.977C458.704 282.522 459.137 280.761 458.143 280.088H455.367V290.473V290.499Z" fill="white"/>
<path d="M442.833 280.114H432.618V290.499H442.833V280.114Z" fill="white"/>
<path d="M431.444 280.114H421.229V290.499H431.444V280.114Z" fill="white"/>
<path d="M420.084 280.114H409.869V290.499H420.084V280.114Z" fill="white"/>
<path d="M408.698 280.14C408.036 280.58 407.679 281.306 407.679 282.574C407.705 285.035 407.552 287.521 407.628 289.981C407.628 290.188 407.603 290.318 407.577 290.499H408.673V280.14H408.698Z" fill="white"/>
<path d="M387.12 290.499H394.864C394.864 290.266 394.813 290.059 394.838 289.774C394.991 287.314 394.838 284.828 394.966 282.367C395.017 281.202 394.736 280.503 394.1 280.114H387.12V290.499Z" fill="white"/>
<path d="M385.951 280.114H383.123C382.613 280.503 382.384 281.176 382.41 282.212C382.435 284.879 382.41 287.573 382.41 290.499H385.925V280.114H385.951Z" fill="white"/>
<path d="M364.372 290.499H369.798C369.798 290.24 369.798 289.955 369.798 289.644C369.925 286.485 369.824 283.325 369.824 280.088H364.398V290.473L364.372 290.499Z" fill="white"/>
<path d="M363.201 280.114H356.476V290.499H363.201V280.114Z" fill="white"/>
<path d="M580.495 279.052H587.45C588.443 275.608 589.36 272.163 590.099 268.667H580.495V279.052Z" fill="white"/>
<path d="M579.322 268.667H572.75C572.75 270.868 572.801 273.044 572.877 275.245C572.954 277.291 572.979 278.404 572.597 279.052H579.322V268.667Z" fill="white"/>
<path d="M521.903 279.051C521.775 278.352 521.648 277.705 521.724 277.109C522.03 274.571 521.113 273.587 518.54 273.846C516.451 274.053 514.337 274.001 512.248 273.846V279.025H521.928L521.903 279.051Z" fill="white"/>
<path d="M511.077 273.871C509.549 274.026 508.759 274.829 509.065 276.901C509.218 277.963 509.039 278.61 508.632 279.051H511.077V273.871Z" fill="white"/>
<path d="M485.172 279.052C484.026 278.12 483.975 276.152 483.949 271.957C483.949 271.853 483.949 271.749 483.949 271.646C484.153 269.807 483.287 269.186 481.529 269.237C480.383 269.263 479.237 269.289 478.116 269.289V279.052H485.172Z" fill="white"/>
<path d="M476.966 269.236C476.049 269.236 475.158 269.184 474.241 269.132C471.948 268.977 470.929 269.754 471.107 272.24C471.26 274.493 471.184 276.772 471.158 279.025H476.941V269.236H476.966Z" fill="white"/>
<path d="M446.017 279.051C445.533 278.3 445.686 276.85 445.66 273.975C445.609 270.661 445.584 269.702 444.004 269.392V279.051H446.042H446.017Z" fill="white"/>
<path d="M442.833 279.051V269.262C442.349 269.262 441.788 269.21 441.126 269.21C433.331 269.081 433.255 269.081 433.076 276.876C433.076 277.808 432.923 278.481 432.618 278.973V279.051H442.833Z" fill="white"/>
<path d="M590.328 267.604C590.379 267.397 590.43 267.19 590.481 266.983C591.474 261.959 589.182 259.084 584.163 258.747C582.941 258.67 581.718 258.67 580.495 258.696V267.604H590.328Z" fill="white"/>
<path d="M579.323 258.747C577.871 258.825 576.419 258.954 574.967 259.11C574.178 259.187 572.878 260.379 572.853 261.104C572.776 263.279 572.751 265.429 572.751 267.604H579.323V258.747Z" fill="white"/>
<path d="M331.716 325.874C331.716 326.495 331.716 327.117 331.741 327.712C331.792 329.551 331.41 330.768 330.238 331.286V336.258H333.957C333.957 336.258 336.097 334.083 340.453 332.167V325.874H331.716Z" fill="white"/>
</svg>
